<?xml version="1.0" encoding="utf-8"?>
<svg version="1.1" id="Layer_1" xmlns="http://www.w3.org/2000/svg" xmlns:xlink="http://www.w3.org/1999/xlink" x="0px" y="0px"
	 width="800px" height="600px" viewBox="0 0 800 600" enable-background="new 0 0 800 600" xml:space="preserve">
<rect x="354.46" y="113.78" fill="#0081BC" width="77.71" height="23.31"/>
<rect x="199.04" y="172.06" fill="#0081BC" width="77.71" height="23.31"/>
<line fill="none" stroke="#999999" stroke-width="2.7198" stroke-miterlimit="10" x1="362.23" y1="137.09" x2="268.98" y2="172.06"/>
<rect x="150.47" y="230.34" fill="#0081BC" width="77.71" height="23.31"/>
<line fill="none" stroke="#999999" stroke-width="2.7198" stroke-miterlimit="10" x1="228.18" y1="195.38" x2="199.04" y2="230.34"/>
<path fill="#59ADD3" d="M218.47,288.63h-58.28c-5.36,0-9.71,4.35-9.71,9.71v3.89c0,5.36,4.35,9.71,9.71,9.71h58.28
	c5.36,0,9.71-4.35,9.71-9.71v-3.89C228.18,292.98,223.83,288.63,218.47,288.63z"/>
<line fill="none" stroke="#999999" stroke-width="2.7198" stroke-miterlimit="10" x1="189.33" y1="253.66" x2="189.33" y2="288.63"/>
<rect x="247.61" y="230.34" fill="#0081BC" width="77.71" height="23.31"/>
<line fill="none" stroke="#999999" stroke-width="2.7198" stroke-miterlimit="10" x1="247.61" y1="195.38" x2="276.75" y2="230.34"/>
<path fill="#59ADD3" d="M315.61,288.63h-58.28c-5.36,0-9.71,4.35-9.71,9.71v3.89c0,5.36,4.35,9.71,9.71,9.71h58.28
	c5.36,0,9.71-4.35,9.71-9.71v-3.89C325.32,292.98,320.97,288.63,315.61,288.63z"/>
<line fill="none" stroke="#999999" stroke-width="2.7198" stroke-miterlimit="10" x1="286.47" y1="253.66" x2="286.47" y2="288.63"/>
<rect x="354.46" y="346.91" opacity="0.7" fill="#0081BC" width="77.71" height="23.31"/>
<line fill="none" stroke="#999999" stroke-width="2.7198" stroke-miterlimit="10" x1="393.32" y1="137.09" x2="393.32" y2="346.91"/>
<rect x="257.32" y="405.19" opacity="0.7" fill="#0081BC" width="77.71" height="23.31"/>
<line fill="none" stroke="#999999" stroke-width="2.7198" stroke-miterlimit="10" x1="373.89" y1="370.22" x2="315.61" y2="405.19"/>
<path opacity="0.7" fill="#59ADD3" d="M325.32,463.47h-58.28c-5.36,0-9.71,4.35-9.71,9.71v3.89c0,5.36,4.35,9.71,9.71,9.71h58.28
	c5.36,0,9.71-4.35,9.71-9.71v-3.89C335.03,467.82,330.69,463.47,325.32,463.47z"/>
<line fill="none" stroke="#999999" stroke-width="2.7198" stroke-miterlimit="10" x1="296.18" y1="428.5" x2="296.18" y2="463.47"/>
<rect x="354.46" y="405.19" opacity="0.7" fill="#0081BC" width="77.71" height="23.31"/>
<line fill="none" stroke="#999999" stroke-width="2.7198" stroke-miterlimit="10" x1="393.32" y1="370.22" x2="393.32" y2="405.19"/>
<path opacity="0.7" fill="#59ADD3" d="M422.46,463.47h-58.28c-5.36,0-9.71,4.35-9.71,9.71v3.89c0,5.36,4.35,9.71,9.71,9.71h58.28
	c5.36,0,9.71-4.35,9.71-9.71v-3.89C432.17,467.82,427.82,463.47,422.46,463.47z"/>
<line fill="none" stroke="#999999" stroke-width="2.7198" stroke-miterlimit="10" x1="393.32" y1="428.5" x2="393.32" y2="463.47"/>
<rect x="451.6" y="405.19" opacity="0.7" fill="#0081BC" width="77.71" height="23.31"/>
<line fill="none" stroke="#999999" stroke-width="2.7198" stroke-miterlimit="10" x1="412.74" y1="370.22" x2="471.03" y2="405.19"/>
<path opacity="0.7" fill="#59ADD3" d="M519.59,463.47h-58.28c-5.36,0-9.71,4.35-9.71,9.71v3.89c0,5.36,4.35,9.71,9.71,9.71h58.28
	c5.36,0,9.71-4.35,9.71-9.71v-3.89C529.31,467.82,524.96,463.47,519.59,463.47z"/>
<line fill="none" stroke="#999999" stroke-width="2.7198" stroke-miterlimit="10" x1="490.45" y1="428.5" x2="490.45" y2="463.47"/>
<rect x="509.88" y="172.06" opacity="0.5" fill="#0081BC" width="77.71" height="23.31"/>
<line fill="none" stroke="#999999" stroke-width="2.7198" stroke-miterlimit="10" x1="424.4" y1="137.09" x2="517.65" y2="172.06"/>
<rect x="461.31" y="230.34" opacity="0.5" fill="#0081BC" width="77.71" height="23.31"/>
<line fill="none" stroke="#999999" stroke-width="2.7198" stroke-miterlimit="10" x1="539.02" y1="195.38" x2="509.88" y2="230.34"/>
<path opacity="0.5" fill="#59ADD3" d="M529.31,288.63h-58.28c-5.36,0-9.71,4.35-9.71,9.71v3.89c0,5.36,4.35,9.71,9.71,9.71h58.28
	c5.36,0,9.71-4.35,9.71-9.71v-3.89C539.02,292.98,534.67,288.63,529.31,288.63z"/>
<line fill="none" stroke="#999999" stroke-width="2.7198" stroke-miterlimit="10" x1="500.17" y1="253.66" x2="500.17" y2="288.63"/>
<rect x="558.45" y="230.34" opacity="0.5" fill="#0081BC" width="77.71" height="23.31"/>
<line fill="none" stroke="#999999" stroke-width="2.7198" stroke-miterlimit="10" x1="558.45" y1="195.38" x2="587.59" y2="230.34"/>
<path opacity="0.5" fill="#59ADD3" d="M626.45,288.63h-58.28c-5.36,0-9.71,4.35-9.71,9.71v3.89c0,5.36,4.35,9.71,9.71,9.71h58.28
	c5.36,0,9.71-4.35,9.71-9.71v-3.89C636.16,292.98,631.81,288.63,626.45,288.63z"/>
<line fill="none" stroke="#999999" stroke-width="2.7198" stroke-miterlimit="10" x1="597.3" y1="253.66" x2="597.3" y2="288.63"/>
<g>
	<path fill="#666666" d="M457.17,115.2l-0.75,4.57c-0.51-0.12-0.89-0.21-1.43-0.21c-1.94,0-2.78,1.43-3.28,3.82v7.91h-4.72v-15.85
		h4.12l0.39,3.04c0.72-2.18,2.27-3.49,4.09-3.49C456.18,115,456.66,115.05,457.17,115.2z"/>
	<path fill="#666666" d="M473.58,123.38c0,5.07-2.93,8.42-7.76,8.42c-4.81,0-7.76-3.1-7.76-8.45c0-5.07,2.92-8.42,7.76-8.42
		S473.58,118.04,473.58,123.38z M462.95,123.35c0,3.52,0.96,4.98,2.87,4.98s2.87-1.52,2.87-4.95c0-3.52-0.96-4.98-2.87-4.98
		S462.95,119.92,462.95,123.35z"/>
	<path fill="#666666" d="M491.01,123.38c0,5.07-2.92,8.42-7.76,8.42c-4.8,0-7.76-3.1-7.76-8.45c0-5.07,2.92-8.42,7.76-8.42
		C488.08,114.94,491.01,118.04,491.01,123.38z M480.38,123.35c0,3.52,0.96,4.98,2.87,4.98s2.87-1.52,2.87-4.95
		c0-3.52-0.96-4.98-2.87-4.98S480.38,119.92,480.38,123.35z"/>
	<path fill="#666666" d="M503.75,130.54c-1.19,0.84-2.87,1.25-4.3,1.25c-3.49-0.03-5.19-2-5.19-5.73v-7.34h-2.24v-3.28h2.24v-3.43
		l4.72-0.54v3.97h3.64l-0.51,3.28h-3.13v7.28c0,1.52,0.51,2.06,1.49,2.06c0.54,0,1.07-0.15,1.7-0.54L503.75,130.54z"/>
</g>
<g>
	<path fill="#666666" d="M615.96,181.61c0,4.89-2.39,8.48-6.3,8.48c-1.55,0-2.87-0.54-3.85-1.67v7.28l-4.72,0.51v-22.47h4.15
		l0.24,1.76c1.31-1.64,3.02-2.27,4.48-2.27C614.14,173.22,615.96,176.47,615.96,181.61z M611.06,181.67c0-3.94-0.96-4.98-2.6-4.98
		c-1.01,0-1.97,0.69-2.66,1.85v6.69c0.66,0.96,1.43,1.4,2.42,1.4C609.99,186.62,611.06,185.22,611.06,181.67z"/>
	<path fill="#666666" d="M632.58,186.92l-0.99,3.07c-1.85-0.15-3.07-0.72-3.82-2.27c-1.13,1.73-2.9,2.36-4.78,2.36
		c-3.16,0-5.16-2.06-5.16-4.95c0-3.46,2.63-5.34,7.43-5.34h1.61v-0.69c0-1.88-0.75-2.45-2.69-2.45c-1.02,0-2.57,0.3-4.15,0.84
		l-1.07-3.1c2-0.75,4.18-1.16,5.97-1.16c4.6,0,6.57,1.94,6.57,5.61v6.15C631.5,186.2,631.83,186.65,632.58,186.92z M626.88,185.22
		v-2.84h-1.16c-2.15,0-3.19,0.75-3.19,2.33c0,1.25,0.69,2,1.85,2C625.45,186.71,626.31,186.14,626.88,185.22z"/>
	<path fill="#666666" d="M645.44,173.49l-0.75,4.57c-0.51-0.12-0.9-0.21-1.43-0.21c-1.94,0-2.78,1.43-3.28,3.82v7.91h-4.72v-15.85
		h4.12l0.39,3.04c0.72-2.18,2.27-3.49,4.09-3.49C644.46,173.28,644.93,173.34,645.44,173.49z"/>
	<path fill="#666666" d="M660.96,183.04h-9.79c0.3,2.83,1.64,3.61,3.58,3.61c1.28,0,2.42-0.45,3.79-1.4l1.94,2.63
		c-1.58,1.25-3.61,2.21-6.18,2.21c-5.28,0-7.97-3.4-7.97-8.36c0-4.75,2.6-8.51,7.4-8.51c4.54,0,7.31,2.98,7.31,8.12
		C661.05,181.85,661.02,182.56,660.96,183.04z M656.42,179.99c-0.03-2.15-0.69-3.64-2.57-3.64c-1.58,0-2.48,0.98-2.72,3.85h5.28
		V179.99z"/>
	<path fill="#666666" d="M677.43,178v11.58h-4.71V178.8c0-1.67-0.57-2.12-1.49-2.12c-1.04,0-1.91,0.75-2.75,2.06v10.83h-4.72v-15.85
		h4.12l0.33,1.88c1.34-1.55,2.87-2.39,4.84-2.39C675.79,173.22,677.43,174.98,677.43,178z"/>
	<path fill="#666666" d="M690.92,188.83c-1.19,0.84-2.87,1.25-4.3,1.25c-3.49-0.03-5.19-2-5.19-5.73v-7.34h-2.24v-3.28h2.24v-3.43
		l4.72-0.54v3.97h3.64l-0.51,3.28h-3.13v7.28c0,1.52,0.51,2.06,1.49,2.06c0.54,0,1.07-0.15,1.7-0.54L690.92,188.83z"/>
</g>
<g>
	<path fill="#666666" d="M662.75,235.8l-2.03,2.81c-1.02-0.78-1.94-1.13-3.02-1.13c-2.03,0-3.19,1.37-3.19,4.92
		c0,3.52,1.25,4.6,3.13,4.6c1.13,0,1.91-0.36,3.04-1.07l2.06,2.92c-1.46,1.16-3.16,1.88-5.34,1.88c-4.87,0-7.85-3.28-7.85-8.3
		c0-5.04,3.01-8.57,7.76-8.57C659.53,233.86,661.23,234.52,662.75,235.8z"/>
	<path fill="#666666" d="M678.42,238.64v11.58h-4.72v-10.77c0-1.67-0.6-2.12-1.49-2.12c-1.04,0-1.91,0.75-2.75,2.03v10.86h-4.72
		v-22.15l4.72-0.48v8.45c1.28-1.43,2.72-2.18,4.57-2.18C676.78,233.86,678.42,235.62,678.42,238.64z"/>
	<path fill="#666666" d="M687.1,228.7c0,1.52-1.16,2.69-2.81,2.69s-2.78-1.16-2.78-2.69s1.13-2.69,2.78-2.69
		S687.1,227.17,687.1,228.7z M686.68,250.22h-4.71v-15.85h4.71V250.22z"/>
	<path fill="#666666" d="M690.23,246.19v-18.12l4.72-0.51v18.44c0,0.66,0.24,0.98,0.81,0.98c0.33,0,0.57-0.06,0.78-0.15l0.92,3.34
		c-0.72,0.3-1.73,0.54-2.87,0.54C691.85,250.72,690.23,249.08,690.23,246.19z"/>
	<path fill="#666666" d="M713.45,228.07v22.15h-4.18l-0.24-1.85c-0.9,1.31-2.36,2.36-4.51,2.36c-4.03,0-6.03-3.34-6.03-8.48
		c0-4.9,2.48-8.39,6.57-8.39c1.43,0,2.72,0.57,3.67,1.49v-7.79L713.45,228.07z M708.74,245.5v-6.86c-0.72-0.84-1.43-1.34-2.45-1.34
		c-1.7,0-2.89,1.43-2.89,4.98c0,3.94,1.07,4.98,2.63,4.98C707.12,247.26,707.99,246.66,708.74,245.5z"/>
</g>
<rect x="251.11" y="398.97" fill="none" stroke="#808080" stroke-width="2.7198" stroke-miterlimit="10" width="284.42" height="35.75"/>
<g>
	<path fill="#666666" d="M564.32,410.64l-1.73,2.66c-1.22-0.78-2.54-1.22-3.91-1.22c-1.28,0-1.91,0.48-1.91,1.19
		c0,0.83,0.42,1.19,3.25,2.03c3.13,0.9,4.89,2.21,4.89,5.04c0,3.28-3.1,5.22-7.04,5.22c-2.75,0-5.07-0.96-6.63-2.36l2.3-2.57
		c1.19,0.92,2.66,1.55,4.21,1.55c1.43,0,2.3-0.54,2.3-1.49c0-1.08-0.48-1.4-3.34-2.21c-3.13-0.9-4.69-2.51-4.69-4.95
		c0-2.72,2.48-4.83,6.48-4.83C560.79,408.7,562.85,409.45,564.32,410.64z"/>
	<path fill="#666666" d="M572.46,403.54c0,1.52-1.16,2.69-2.81,2.69c-1.64,0-2.78-1.16-2.78-2.69c0-1.52,1.13-2.69,2.78-2.69
		C571.3,400.85,572.46,402.01,572.46,403.54z M572.04,425.06h-4.72v-15.85h4.72V425.06z"/>
	<path fill="#666666" d="M590.61,417.15c0,4.89-2.36,8.42-6.3,8.42c-1.76,0-3.19-0.75-4.15-2.03l-0.24,1.52h-4.18v-22.15l4.71-0.51
		v8.42c0.93-1.28,2.54-2.12,4.18-2.12C588.54,408.7,590.61,411.83,590.61,417.15z M585.71,417.15c0-4.03-1.07-4.98-2.54-4.98
		c-1.13,0-2.03,0.69-2.72,1.85v6.57c0.6,0.99,1.46,1.55,2.51,1.55C584.58,422.13,585.71,420.85,585.71,417.15z"/>
	<path fill="#666666" d="M593.41,421.03v-18.12l4.72-0.51v18.45c0,0.66,0.24,0.98,0.81,0.98c0.33,0,0.57-0.06,0.78-0.15l0.92,3.34
		c-0.72,0.3-1.73,0.54-2.87,0.54C595.02,425.56,593.41,423.92,593.41,421.03z"/>
	<path fill="#666666" d="M607.55,403.54c0,1.52-1.16,2.69-2.81,2.69c-1.64,0-2.78-1.16-2.78-2.69c0-1.52,1.13-2.69,2.78-2.69
		C606.39,400.85,607.55,402.01,607.55,403.54z M607.13,425.06h-4.72v-15.85h4.72V425.06z"/>
	<path fill="#666666" d="M624.5,413.48v11.58h-4.71v-10.77c0-1.67-0.57-2.12-1.49-2.12c-1.04,0-1.91,0.75-2.75,2.06v10.83h-4.72
		v-15.85h4.12l0.33,1.88c1.34-1.55,2.87-2.39,4.84-2.39C622.86,408.7,624.5,410.46,624.5,413.48z"/>
	<path fill="#666666" d="M642.65,410.13c-1.11,0.45-2.57,0.63-4.57,0.63c2,0.87,2.98,2.03,2.98,4.09c0,3.07-2.54,5.31-6.66,5.31
		c-0.66,0-1.25-0.06-1.82-0.18c-0.33,0.18-0.51,0.54-0.51,0.89c0,0.48,0.21,0.96,1.73,0.96h2.39c3.7,0,6.06,1.94,6.06,4.6
		c0,3.25-2.87,5.25-8.3,5.25c-6,0-7.58-1.97-7.58-5.1h4.24c0,1.37,0.6,1.97,3.46,1.97c2.78,0,3.43-0.78,3.43-1.79
		c0-0.92-0.69-1.55-2.27-1.55h-2.3c-3.46,0-4.86-1.43-4.86-3.13c0-1.16,0.75-2.33,1.88-3.04c-2.03-1.08-2.83-2.48-2.83-4.54
		c0-3.58,2.81-5.79,6.95-5.79c3.52,0.09,5.55-0.92,7.46-2.06L642.65,410.13z M631.81,414.43c0,1.73,0.96,2.69,2.39,2.69
		c1.55,0,2.39-0.93,2.39-2.75c0-1.76-0.81-2.57-2.39-2.57C632.74,411.8,631.81,412.79,631.81,414.43z"/>
	<path fill="#666666" d="M655.89,410.64l-1.73,2.66c-1.22-0.78-2.54-1.22-3.91-1.22c-1.28,0-1.91,0.48-1.91,1.19
		c0,0.83,0.42,1.19,3.25,2.03c3.13,0.9,4.89,2.21,4.89,5.04c0,3.28-3.1,5.22-7.04,5.22c-2.75,0-5.07-0.96-6.62-2.36l2.3-2.57
		c1.19,0.92,2.66,1.55,4.21,1.55c1.43,0,2.3-0.54,2.3-1.49c0-1.08-0.48-1.4-3.34-2.21c-3.13-0.9-4.69-2.51-4.69-4.95
		c0-2.72,2.48-4.83,6.48-4.83C652.37,408.7,654.43,409.45,655.89,410.64z"/>
</g>
</svg>
