<?xml version="1.0" encoding="utf-8"?>
<svg version="1.1" id="Layer_1" xmlns="http://www.w3.org/2000/svg" xmlns:xlink="http://www.w3.org/1999/xlink" x="0px" y="0px"
	 width="800px" height="600px" viewBox="0 0 800 600" enable-background="new 0 0 800 600" xml:space="preserve">
<path fill="#59ADD3" d="M301.62,147.86h-58.28c-5.36,0-9.71,4.35-9.71,9.71v3.89c0,5.36,4.35,9.71,9.71,9.71h58.28
	c5.36,0,9.71-4.35,9.71-9.71v-3.89C311.33,152.21,306.99,147.86,301.62,147.86z"/>
<path opacity="0.5" fill="#59ADD3" d="M573.6,186.71h-58.28c-5.36,0-9.71,4.35-9.71,9.71v3.89c0,5.36,4.35,9.71,9.71,9.71h58.28
	c5.36,0,9.71-4.35,9.71-9.71v-3.89C583.32,191.06,578.97,186.71,573.6,186.71z"/>
<path fill="#59ADD3" d="M340.48,419.84h-58.28c-5.36,0-9.71,4.35-9.71,9.71v3.89c0,5.36,4.35,9.71,9.71,9.71h58.28
	c5.36,0,9.71-4.35,9.71-9.71v-3.89C350.19,424.19,345.84,419.84,340.48,419.84z"/>
<path opacity="0.5" fill="#59ADD3" d="M457.04,264.42h-58.28c-5.36,0-9.71,4.35-9.71,9.71v3.89c0,5.36,4.35,9.71,9.71,9.71h58.28
	c5.36,0,9.71-4.35,9.71-9.71v-3.89C466.75,268.77,462.4,264.42,457.04,264.42z"/>
<path fill="#59ADD3" d="M534.75,380.99h-58.28c-5.36,0-9.71,4.35-9.71,9.71v3.89c0,5.36,4.35,9.71,9.71,9.71h58.28
	c5.36,0,9.71-4.35,9.71-9.71v-3.89C544.46,385.33,540.11,380.99,534.75,380.99z"/>
<path opacity="0.7" fill="#59ADD3" d="M301.62,303.28h-58.28c-5.36,0-9.71,4.35-9.71,9.71v3.89c0,5.36,4.35,9.71,9.71,9.71h58.28
	c5.36,0,9.71-4.35,9.71-9.71v-3.89C311.33,307.62,306.99,303.28,301.62,303.28z"/>
<path fill="#59ADD3" d="M612.46,303.28h-58.28c-5.36,0-9.71,4.35-9.71,9.71v3.89c0,5.36,4.35,9.71,9.71,9.71h58.28
	c5.36,0,9.71-4.35,9.71-9.71v-3.89C622.17,307.62,617.82,303.28,612.46,303.28z"/>
<path opacity="0.5" fill="#59ADD3" d="M612.46,458.69h-58.28c-5.36,0-9.71,4.35-9.71,9.71v3.89c0,5.36,4.35,9.71,9.71,9.71h58.28
	c5.36,0,9.71-4.35,9.71-9.71v-3.89C622.17,463.04,617.82,458.69,612.46,458.69z"/>
<path fill="#59ADD3" d="M321.05,225.57h-58.28c-5.36,0-9.71,4.35-9.71,9.71v3.89c0,5.36,4.35,9.71,9.71,9.71h58.28
	c5.36,0,9.71-4.35,9.71-9.71v-3.89C330.76,229.91,326.41,225.57,321.05,225.57z"/>
<path fill="none" stroke="#1A8EC3" stroke-width="3.4969" stroke-miterlimit="10" d="M311.33,158.25
	c77.95-2.45,123.45,4.11,179.22,22.44"/>
<path fill="#0081BC" d="M508.87,186.71c-5.09-2.8-12.91-8.75-17.84-14.32l-5.02,15.26C493.28,186.1,503.11,185.94,508.87,186.71"/>
<g>
	<path fill="#666666" d="M375.11,136.96c0,4.89-2.39,8.48-6.3,8.48c-1.55,0-2.87-0.54-3.85-1.67v7.28l-4.72,0.51v-22.47h4.15
		l0.24,1.76c1.31-1.64,3.01-2.27,4.48-2.27C373.29,128.58,375.11,131.83,375.11,136.96z M370.22,137.02c0-3.94-0.96-4.98-2.6-4.98
		c-1.01,0-1.97,0.69-2.66,1.85v6.69c0.66,0.96,1.43,1.4,2.42,1.4C369.14,141.98,370.22,140.57,370.22,137.02z"/>
	<path fill="#666666" d="M388.24,128.84l-0.75,4.57c-0.51-0.12-0.9-0.21-1.43-0.21c-1.94,0-2.78,1.43-3.28,3.82v7.91h-4.72v-15.85
		h4.12l0.39,3.04c0.72-2.18,2.27-3.49,4.09-3.49C387.25,128.64,387.73,128.7,388.24,128.84z"/>
	<path fill="#666666" d="M404.65,137.02c0,5.07-2.92,8.42-7.76,8.42c-4.8,0-7.76-3.1-7.76-8.45c0-5.07,2.92-8.42,7.76-8.42
		S404.65,131.68,404.65,137.02z M394.03,136.99c0,3.52,0.96,4.98,2.87,4.98s2.87-1.52,2.87-4.95c0-3.52-0.96-4.98-2.87-4.98
		S394.03,133.56,394.03,136.99z"/>
	<path fill="#666666" d="M422.32,136.96c0,4.89-2.39,8.48-6.3,8.48c-1.55,0-2.87-0.54-3.85-1.67v7.28l-4.72,0.51v-22.47h4.15
		l0.24,1.76c1.31-1.64,3.01-2.27,4.48-2.27C420.5,128.58,422.32,131.83,422.32,136.96z M417.42,137.02c0-3.94-0.96-4.98-2.6-4.98
		c-1.01,0-1.97,0.69-2.66,1.85v6.69c0.66,0.96,1.43,1.4,2.42,1.4C416.35,141.98,417.42,140.57,417.42,137.02z"/>
	<path fill="#666666" d="M439,138.4h-9.79c0.3,2.83,1.64,3.61,3.58,3.61c1.28,0,2.42-0.45,3.79-1.4l1.94,2.63
		c-1.58,1.25-3.61,2.21-6.18,2.21c-5.28,0-7.97-3.4-7.97-8.36c0-4.75,2.6-8.51,7.4-8.51c4.54,0,7.31,2.98,7.31,8.12
		C439.09,137.2,439.06,137.92,439,138.4z M434.46,135.35c-0.03-2.15-0.69-3.64-2.57-3.64c-1.58,0-2.48,0.98-2.72,3.85h5.28V135.35z"
		/>
	<path fill="#666666" d="M451.98,128.84l-0.75,4.57c-0.51-0.12-0.9-0.21-1.43-0.21c-1.94,0-2.78,1.43-3.28,3.82v7.91h-4.72v-15.85
		h4.12l0.39,3.04c0.72-2.18,2.27-3.49,4.09-3.49C450.99,128.64,451.47,128.7,451.98,128.84z"/>
	<path fill="#666666" d="M463.7,144.19c-1.19,0.84-2.87,1.25-4.3,1.25c-3.49-0.03-5.19-2-5.19-5.73v-7.34h-2.24v-3.28h2.24v-3.43
		l4.72-0.54v3.97h3.64l-0.51,3.28h-3.13v7.28c0,1.52,0.51,2.06,1.49,2.06c0.54,0,1.08-0.15,1.7-0.54L463.7,144.19z"/>
	<path fill="#666666" d="M474.03,144.96c-1.25,4-3.94,6.33-8.92,6.6l-0.51-3.31c3.1-0.39,4.24-1.28,5.1-3.31h-1.61l-4.83-15.85h5.01
		l2.84,12.83l3.1-12.83h4.87L474.03,144.96z"/>
</g>
<path opacity="0.5" fill="none" stroke="#1A8EC3" stroke-width="3.4969" stroke-miterlimit="10" d="M454.46,264.42
	c33.65-15.66,51.54-28.17,64.14-40.75"/>
<path opacity="0.5" fill="#0081BC" d="M532.26,210.02c-4.81,3.28-13.66,7.58-20.87,9.47l11.37,11.39
	C524.67,223.68,528.97,214.83,532.26,210.02"/>
<path opacity="0.5" fill="none" stroke="#1A8EC3" stroke-width="3.4969" stroke-miterlimit="10" d="M439.03,287.73
	c29.99,31.72,44.14,53.19,53.82,75.58"/>
<path opacity="0.5" fill="#0081BC" d="M500.5,380.99c-1.28-5.66-2.02-15.44-1.13-22.82l-14.72,6.37
	C490.63,368.94,497.25,376.17,500.5,380.99"/>
<path opacity="0.7" fill="none" stroke="#1A8EC3" stroke-width="3.4969" stroke-miterlimit="10" d="M466.75,278.82
	c36.4,3.27,57.34,8.93,72.96,16.26"/>
<path opacity="0.7" fill="#0081BC" d="M557.18,303.28c-4.72-3.4-11.77-10.26-16-16.39l-6.83,14.56
	C541.77,300.78,551.55,301.82,557.18,303.28"/>
<path fill="none" stroke="#1A8EC3" stroke-width="3.4969" stroke-miterlimit="10" d="M389.04,272.03
	c-29.73-3.94-46.59-9.28-56.12-14.25"/>
<path fill="#0081BC" d="M315.86,248.88c4.56,3.59,11.29,10.72,15.25,17l7.42-14.22C331.11,252.01,321.41,250.57,315.86,248.88"/>
<path fill="none" stroke="#1A8EC3" stroke-width="3.4969" stroke-miterlimit="10" d="M466.75,386.88
	c-70.52-11.47-110.41-25.39-155.9-50.86"/>
<path fill="#0081BC" d="M294,326.59c4.47,3.73,11.01,11.08,14.79,17.5l7.86-14.04C309.21,330.18,299.52,328.45,294,326.59"/>
<path opacity="0.7" fill="none" stroke="#1A8EC3" stroke-width="3.4969" stroke-miterlimit="10" d="M274.21,326.59
	c5.52,37.91,12.66,59.52,21.67,76.26"/>
<path opacity="0.7" fill="#0081BC" d="M305.02,419.84c-1.77-5.54-3.34-15.25-3.08-22.69l-14.16,7.62
	C294.14,408.65,301.37,415.31,305.02,419.84"/>
<path opacity="0.7" fill="none" stroke="#1A8EC3" stroke-width="3.4969" stroke-miterlimit="10" d="M585.37,326.59
	c8.95,50.74,8.95,81.37,3.34,113.15"/>
<path opacity="0.7" fill="#0081BC" d="M585.37,458.7c2.04-5.43,6.81-14,11.61-19.67l-15.8-2.79
	C583.76,443.2,585.31,452.89,585.37,458.7"/>
<path opacity="0.5" fill="none" stroke="#1A8EC3" stroke-width="3.4969" stroke-miterlimit="10" d="M544.46,471.62
	c-77.95,2.45-123.45-4.11-179.22-22.44"/>
<path opacity="0.5" fill="#0081BC" d="M346.93,443.15c5.09,2.8,12.91,8.75,17.84,14.32l5.02-15.26
	C362.51,443.77,352.69,443.92,346.93,443.15"/>
<g>
	<g>
		<path fill="#666666" d="M138.47,153.31l-1.73,2.66c-1.22-0.78-2.54-1.22-3.91-1.22c-1.28,0-1.91,0.48-1.91,1.19
			c0,0.84,0.42,1.19,3.25,2.03c3.13,0.9,4.89,2.21,4.89,5.04c0,3.28-3.1,5.22-7.04,5.22c-2.75,0-5.07-0.96-6.63-2.36l2.3-2.57
			c1.19,0.92,2.66,1.55,4.21,1.55c1.43,0,2.3-0.54,2.3-1.49c0-1.07-0.48-1.4-3.34-2.21c-3.13-0.9-4.69-2.51-4.69-4.95
			c0-2.72,2.48-4.83,6.48-4.83C134.95,151.37,137.01,152.12,138.47,153.31z"/>
		<path fill="#666666" d="M154.85,167.73h-4.09l-0.21-2c-1.16,1.67-2.72,2.51-4.81,2.51c-2.95,0-4.42-1.91-4.42-4.98v-11.37h4.72
			v10.77c0,1.61,0.54,2.09,1.52,2.09c0.98,0,1.88-0.66,2.57-1.85v-11.01h4.72V167.73z"/>
		<path fill="#666666" d="M173.41,159.82c0,4.89-2.36,8.42-6.3,8.42c-1.76,0-3.19-0.75-4.15-2.03l-0.24,1.52h-4.18v-22.15l4.72-0.51
			v8.42c0.92-1.28,2.54-2.12,4.18-2.12C171.35,151.37,173.41,154.51,173.41,159.82z M168.52,159.82c0-4.03-1.08-4.98-2.54-4.98
			c-1.13,0-2.03,0.69-2.72,1.85v6.57c0.6,0.98,1.46,1.55,2.51,1.55C167.38,164.8,168.52,163.52,168.52,159.82z"/>
		<path fill="#666666" d="M181.05,165.94c0,5.16-2.66,7.04-6.36,8.39l-1.58-3.43c2.03-0.93,3.22-1.76,3.22-4.66v-14.36h4.72V165.94z
			 M181.5,146.21c0,1.52-1.16,2.69-2.81,2.69s-2.78-1.16-2.78-2.69s1.13-2.69,2.78-2.69S181.5,144.69,181.5,146.21z"/>
		<path fill="#666666" d="M198.48,161.19h-9.79c0.3,2.83,1.64,3.61,3.58,3.61c1.28,0,2.42-0.45,3.79-1.4l1.94,2.63
			c-1.58,1.25-3.61,2.21-6.18,2.21c-5.28,0-7.97-3.4-7.97-8.36c0-4.75,2.6-8.51,7.4-8.51c4.54,0,7.31,2.98,7.31,8.12
			C198.57,160,198.54,160.71,198.48,161.19z M193.94,158.15c-0.03-2.15-0.69-3.64-2.57-3.64c-1.58,0-2.48,0.98-2.72,3.85h5.28
			V158.15z"/>
		<path fill="#666666" d="M213.58,153.31l-2.03,2.81c-1.01-0.78-1.94-1.13-3.01-1.13c-2.03,0-3.19,1.37-3.19,4.92
			c0,3.52,1.25,4.6,3.13,4.6c1.13,0,1.91-0.36,3.04-1.07l2.06,2.92c-1.46,1.16-3.16,1.88-5.34,1.88c-4.87,0-7.85-3.28-7.85-8.3
			c0-5.04,3.01-8.57,7.76-8.57C210.35,151.37,212.05,152.03,213.58,153.31z"/>
		<path fill="#666666" d="M225.51,166.98c-1.19,0.84-2.87,1.25-4.3,1.25c-3.49-0.03-5.19-2-5.19-5.73v-7.34h-2.24v-3.28h2.24v-3.43
			l4.72-0.54v3.97h3.64l-0.51,3.28h-3.13v7.28c0,1.52,0.51,2.06,1.49,2.06c0.54,0,1.08-0.15,1.7-0.54L225.51,166.98z"/>
	</g>
</g>
<g>
	<g>
		<path fill="#666666" d="M610.17,198.67c0,5.07-2.93,8.42-7.76,8.42c-4.8,0-7.76-3.1-7.76-8.45c0-5.07,2.92-8.42,7.76-8.42
			S610.17,193.33,610.17,198.67z M599.54,198.64c0,3.52,0.96,4.98,2.87,4.98s2.87-1.52,2.87-4.95c0-3.52-0.96-4.98-2.87-4.98
			S599.54,195.21,599.54,198.64z"/>
		<path fill="#666666" d="M627.83,198.67c0,4.89-2.36,8.42-6.3,8.42c-1.76,0-3.19-0.75-4.15-2.03l-0.24,1.52h-4.18v-22.15l4.72-0.51
			v8.42c0.92-1.28,2.54-2.12,4.18-2.12C625.77,190.22,627.83,193.36,627.83,198.67z M622.94,198.67c0-4.03-1.08-4.98-2.54-4.98
			c-1.13,0-2.03,0.69-2.72,1.85v6.57c0.6,0.98,1.46,1.55,2.51,1.55C621.8,203.66,622.94,202.37,622.94,198.67z"/>
		<path fill="#666666" d="M635.47,204.79c0,5.16-2.66,7.04-6.36,8.39l-1.58-3.43c2.03-0.93,3.22-1.76,3.22-4.66v-14.36h4.72V204.79z
			 M635.92,185.06c0,1.52-1.16,2.69-2.81,2.69s-2.78-1.16-2.78-2.69s1.13-2.69,2.78-2.69S635.92,183.54,635.92,185.06z"/>
		<path fill="#666666" d="M652.9,200.04h-9.79c0.3,2.83,1.64,3.61,3.58,3.61c1.28,0,2.42-0.45,3.79-1.4l1.94,2.63
			c-1.58,1.25-3.61,2.21-6.18,2.21c-5.28,0-7.97-3.4-7.97-8.36c0-4.75,2.6-8.51,7.4-8.51c4.54,0,7.31,2.98,7.31,8.12
			C652.99,198.85,652.96,199.57,652.9,200.04z M648.36,197c-0.03-2.15-0.69-3.64-2.57-3.64c-1.58,0-2.48,0.98-2.72,3.85h5.28V197z"
			/>
		<path fill="#666666" d="M668,192.16l-2.03,2.81c-1.01-0.78-1.94-1.13-3.01-1.13c-2.03,0-3.19,1.37-3.19,4.92
			c0,3.52,1.25,4.6,3.13,4.6c1.13,0,1.91-0.36,3.04-1.07l2.06,2.92c-1.46,1.16-3.16,1.88-5.34,1.88c-4.87,0-7.85-3.28-7.85-8.3
			c0-5.04,3.01-8.57,7.76-8.57C664.77,190.22,666.47,190.88,668,192.16z"/>
		<path fill="#666666" d="M679.93,205.83c-1.19,0.84-2.87,1.25-4.3,1.25c-3.49-0.03-5.19-2-5.19-5.73v-7.34h-2.24v-3.28h2.24v-3.43
			l4.72-0.54v3.97h3.64l-0.51,3.28h-3.13v7.28c0,1.52,0.51,2.06,1.49,2.06c0.54,0,1.08-0.15,1.7-0.54L679.93,205.83z"/>
	</g>
</g>
</svg>
