<?xml version="1.0" encoding="utf-8"?>
<svg version="1.1" id="Layer_1" xmlns="http://www.w3.org/2000/svg" xmlns:xlink="http://www.w3.org/1999/xlink" x="0px" y="0px"
	 width="800px" height="355px" viewBox="0 0 800 355" enable-background="new 0 0 800 355" xml:space="preserve">
<line fill="none" stroke="#0081BC" stroke-width="4.863" stroke-miterlimit="10" x1="170.39" y1="103.34" x2="269.87" y2="137.21"/>
<path fill="#0081BC" d="M288.1,143.42c-5.06-2.85-12.8-8.88-17.67-14.5l-5.17,15.19C272.54,142.64,282.36,142.59,288.1,143.42"/>
<g>
	<path fill="#0081BC" d="M226.27,99.57l-1.14,1.33c-0.75-0.65-1.45-0.91-2.4-0.91c-3.1,0-4.02,3.69-4.02,6.23
		c0,2.15,0.93,3.03,2.5,3.03c1.07,0,1.87-0.35,2.85-0.96l0.86,1.49c-1.21,0.86-2.5,1.28-3.85,1.28c-2.92,0-4.6-1.87-4.6-5.02
		c0-3.22,1.68-7.84,6.23-7.84C224.08,98.21,225.27,98.61,226.27,99.57z"/>
	<path fill="#0081BC" d="M235.82,98.38l-0.63,2.08c-0.35-0.09-0.61-0.12-1-0.12c-1.59,0-2.66,1.45-3.52,3.95l-0.93,6.51h-2.12
		l1.73-12.3h1.82l-0.14,2.52c0.93-1.91,2.22-2.8,3.57-2.8C235.02,98.21,235.44,98.28,235.82,98.38z"/>
	<path fill="#0081BC" d="M238.62,106.22c0.05,2.24,1.1,3.06,2.66,3.06c1.14,0,2.17-0.35,3.29-1.14l0.91,1.45
		c-1.33,0.96-2.78,1.49-4.41,1.49c-3.01,0-4.69-1.89-4.69-5c0-3.36,1.66-7.87,6.33-7.87c2.61,0,3.9,1.49,3.9,3.13
		C246.6,104.8,242.91,105.75,238.62,106.22z M244.36,101.41c0-0.58-0.35-1.49-1.68-1.49c-2.57,0-3.64,2.43-3.95,4.67
		C242.26,104.19,244.36,103.51,244.36,101.41z"/>
	<path fill="#0081BC" d="M259.46,99.27l-1.33,8.73c-0.02,0.19-0.05,0.35-0.05,0.49c0,0.68,0.3,0.93,0.79,1.12l-0.61,1.47
		c-1.24-0.16-2.01-0.72-2.17-2.05c-0.96,1.24-2.22,2.05-3.67,2.05c-2.57,0-3.92-1.89-3.92-4.72c0-3.36,1.77-8.15,6.56-8.15
		C256.55,98.21,257.83,98.47,259.46,99.27z M250.8,106.39c0,2.05,0.77,2.99,2.15,2.99c1.31,0,2.26-0.98,3.22-2.26l1.03-6.79
		c-0.7-0.3-1.21-0.4-2.08-0.4C251.99,99.92,250.8,103.63,250.8,106.39z"/>
	<path fill="#0081BC" d="M264.67,107.55c-0.19,1.24,0.09,1.73,1.1,1.73c0.56,0,1.07-0.19,1.73-0.56l0.7,1.54
		c-0.89,0.56-1.8,0.82-2.78,0.82c-2.12,0-3.2-1.28-2.87-3.57l1.03-7.35h-2.12l0.23-1.66h2.22l0.77-2.85l1.68-0.19l-0.42,3.04h2.9
		l-0.47,1.66h-2.66L264.67,107.55z"/>
	<path fill="#0081BC" d="M272.37,106.22c0.05,2.24,1.1,3.06,2.66,3.06c1.14,0,2.17-0.35,3.29-1.14l0.91,1.45
		c-1.33,0.96-2.78,1.49-4.41,1.49c-3.01,0-4.69-1.89-4.69-5c0-3.36,1.66-7.87,6.33-7.87c2.61,0,3.9,1.49,3.9,3.13
		C280.35,104.8,276.67,105.75,272.37,106.22z M278.11,101.41c0-0.58-0.35-1.49-1.68-1.49c-2.57,0-3.64,2.43-3.95,4.67
		C276.01,104.19,278.11,103.51,278.11,101.41z"/>
	<path fill="#0081BC" d="M294.29,93.57l-2.43,17.23h-1.87l0.02-2.03c-0.86,1.42-2.12,2.31-3.71,2.31c-2.54,0-3.9-1.91-3.9-4.88
		c0-3.18,1.52-7.98,5.72-7.98c1.45,0,2.47,0.68,3.15,1.54l0.91-6.42L294.29,93.57z M284.67,106.36c0,2.08,0.77,3.01,2.05,3.01
		c1.52,0,2.52-1.12,3.62-2.85l0.72-5.11c-0.63-0.96-1.4-1.49-2.54-1.49C285.54,99.92,284.67,103.91,284.67,106.36z"/>
</g>
<line fill="none" stroke="#0081BC" stroke-width="4.863" stroke-miterlimit="10" x1="405.76" y1="140.78" x2="469.8" y2="98.03"/>
<path fill="#0081BC" d="M485.87,87.3c-5.36,2.29-14.89,4.77-22.33,5.23l8.94,13.39C475.75,99.21,481.7,91.37,485.87,87.3"/>
<g>
	<path fill="#0081BC" d="M470.65,125.87l-0.63,2.08c-0.35-0.09-0.61-0.12-1-0.12c-1.59,0-2.66,1.45-3.53,3.95l-0.93,6.51h-2.12
		l1.73-12.3h1.82l-0.14,2.52c0.93-1.91,2.22-2.8,3.57-2.8C469.85,125.7,470.27,125.77,470.65,125.87z"/>
	<path fill="#0081BC" d="M473.45,133.71c0.05,2.24,1.1,3.06,2.66,3.06c1.14,0,2.17-0.35,3.29-1.14l0.91,1.45
		c-1.33,0.96-2.78,1.49-4.41,1.49c-3.01,0-4.69-1.89-4.69-5c0-3.36,1.66-7.87,6.33-7.87c2.61,0,3.9,1.49,3.9,3.13
		C481.43,132.29,477.74,133.24,473.45,133.71z M479.19,128.9c0-0.58-0.35-1.49-1.68-1.49c-2.57,0-3.64,2.43-3.95,4.67
		C477.09,131.68,479.19,131,479.19,128.9z"/>
	<path fill="#0081BC" d="M492.35,127.22l-1.03,1.28c-0.93-0.72-1.96-1.1-3.04-1.1c-1.49,0-2.45,0.63-2.45,1.66
		c0,0.98,0.82,1.35,2.47,1.87c2.31,0.72,3.48,1.75,3.48,3.69c0,2.73-2.54,3.95-5.11,3.95c-2.15,0-3.6-0.84-4.55-1.77l1.24-1.26
		c0.89,0.79,2.03,1.31,3.41,1.31c2.17,0,2.78-1.19,2.78-2.01c0-1.24-0.63-1.66-2.59-2.26c-2.36-0.72-3.29-1.68-3.29-3.36
		c0-1.63,1.45-3.5,4.65-3.5C490.02,125.7,491.3,126.29,492.35,127.22z"/>
	<path fill="#0081BC" d="M496.39,138.29h-2.12l1.73-12.3h2.12L496.39,138.29z M499.15,121.67c-0.12,0.77-0.72,1.33-1.59,1.33
		c-0.93,0-1.47-0.7-1.35-1.56c0.12-0.79,0.75-1.35,1.59-1.35C498.75,120.08,499.26,120.78,499.15,121.67z"/>
	<path fill="#0081BC" d="M512.64,121.06l-2.43,17.23h-1.87l0.02-2.03c-0.86,1.42-2.12,2.31-3.71,2.31c-2.54,0-3.9-1.91-3.9-4.88
		c0-3.18,1.52-7.98,5.72-7.98c1.45,0,2.47,0.68,3.15,1.54l0.91-6.42L512.64,121.06z M503.02,133.85c0,2.08,0.77,3.01,2.05,3.01
		c1.52,0,2.52-1.12,3.62-2.85l0.72-5.11c-0.63-0.96-1.4-1.49-2.54-1.49C503.88,127.41,503.02,131.4,503.02,133.85z"/>
	<path fill="#0081BC" d="M516.72,133.71c0.05,2.24,1.1,3.06,2.66,3.06c1.14,0,2.17-0.35,3.29-1.14l0.91,1.45
		c-1.33,0.96-2.78,1.49-4.41,1.49c-3.01,0-4.69-1.89-4.69-5c0-3.36,1.66-7.87,6.33-7.87c2.61,0,3.9,1.49,3.9,3.13
		C524.71,132.29,521.02,133.24,516.72,133.71z M522.46,128.9c0-0.58-0.35-1.49-1.68-1.49c-2.57,0-3.64,2.43-3.95,4.67
		C520.36,131.68,522.46,131,522.46,128.9z"/>
	<path fill="#0081BC" d="M535.63,127.22l-1.03,1.28c-0.93-0.72-1.96-1.1-3.04-1.1c-1.49,0-2.45,0.63-2.45,1.66
		c0,0.98,0.82,1.35,2.47,1.87c2.31,0.72,3.48,1.75,3.48,3.69c0,2.73-2.54,3.95-5.11,3.95c-2.15,0-3.6-0.84-4.55-1.77l1.24-1.26
		c0.89,0.79,2.03,1.31,3.41,1.31c2.17,0,2.78-1.19,2.78-2.01c0-1.24-0.63-1.66-2.59-2.26c-2.36-0.72-3.29-1.68-3.29-3.36
		c0-1.63,1.45-3.5,4.65-3.5C533.29,125.7,534.58,126.29,535.63,127.22z"/>
</g>
<line fill="none" stroke="#0081BC" stroke-width="4.863" stroke-miterlimit="10" x1="566.85" y1="82.11" x2="640.16" y2="159.01"/>
<path fill="#0081BC" d="M653.47,172.97c-3.17-4.88-7.25-13.82-8.97-21.06L632.86,163C640.01,165.07,648.75,169.57,653.47,172.97"/>
<g>
	<path fill="#0081BC" d="M628.26,118.99c-0.07,0.65,0.05,0.91,0.56,0.91c0.28,0,0.56-0.07,0.84-0.19l0.44,1.56
		c-0.63,0.28-1.17,0.4-1.7,0.4c-1.63,0-2.5-1-2.22-3.04l2.05-14.5l2.15-0.26L628.26,118.99z"/>
	<path fill="#0081BC" d="M643.57,113.9c0,2.96-1.52,7.77-6.35,7.77c-3.06,0-4.72-1.96-4.72-5.09c0-3.04,1.56-7.77,6.37-7.77
		C641.94,108.81,643.57,110.78,643.57,113.9z M634.75,116.82c0,2.15,0.89,3.13,2.54,3.13c3.2,0,4.04-3.92,4.04-6.28
		c0-2.15-0.89-3.13-2.52-3.13C635.61,110.54,634.75,114.46,634.75,116.82z"/>
	<path fill="#0081BC" d="M655.8,110.17l-1.14,1.33c-0.75-0.65-1.45-0.91-2.4-0.91c-3.11,0-4.02,3.69-4.02,6.23
		c0,2.15,0.93,3.03,2.5,3.03c1.07,0,1.87-0.35,2.85-0.96l0.86,1.49c-1.21,0.86-2.5,1.28-3.85,1.28c-2.92,0-4.6-1.87-4.6-5.02
		c0-3.22,1.68-7.84,6.23-7.84C653.61,108.81,654.8,109.21,655.8,110.17z"/>
	<path fill="#0081BC" d="M667.92,109.87l-1.33,8.73c-0.02,0.19-0.05,0.35-0.05,0.49c0,0.68,0.3,0.93,0.79,1.12l-0.61,1.47
		c-1.24-0.16-2.01-0.72-2.17-2.05c-0.96,1.24-2.22,2.05-3.67,2.05c-2.57,0-3.92-1.89-3.92-4.72c0-3.36,1.77-8.15,6.56-8.15
		C665,108.81,666.28,109.07,667.92,109.87z M659.26,116.99c0,2.05,0.77,2.99,2.15,2.99c1.31,0,2.26-0.98,3.22-2.26l1.03-6.79
		c-0.7-0.3-1.21-0.4-2.08-0.4C660.45,110.52,659.26,114.23,659.26,116.99z"/>
	<path fill="#0081BC" d="M673.12,118.15c-0.19,1.24,0.09,1.73,1.1,1.73c0.56,0,1.07-0.19,1.73-0.56l0.7,1.54
		c-0.89,0.56-1.8,0.82-2.78,0.82c-2.12,0-3.2-1.28-2.87-3.57l1.03-7.35h-2.12l0.23-1.66h2.22l0.77-2.85l1.68-0.19l-0.42,3.04h2.89
		l-0.47,1.66h-2.66L673.12,118.15z"/>
	<path fill="#0081BC" d="M680.82,121.4h-2.12l1.73-12.3h2.12L680.82,121.4z M683.58,104.78c-0.12,0.77-0.72,1.33-1.59,1.33
		c-0.93,0-1.47-0.7-1.35-1.56c0.12-0.79,0.75-1.35,1.59-1.35C683.18,103.19,683.7,103.89,683.58,104.78z"/>
	<path fill="#0081BC" d="M696.16,113.9c0,2.96-1.52,7.77-6.35,7.77c-3.06,0-4.72-1.96-4.72-5.09c0-3.04,1.56-7.77,6.37-7.77
		C694.53,108.81,696.16,110.78,696.16,113.9z M687.34,116.82c0,2.15,0.89,3.13,2.54,3.13c3.2,0,4.04-3.92,4.04-6.28
		c0-2.15-0.89-3.13-2.52-3.13C688.2,110.54,687.34,114.46,687.34,116.82z"/>
	<path fill="#0081BC" d="M709.19,112.76l-1.21,8.64h-2.12l1.21-8.59c0.23-1.73-0.37-2.19-1.31-2.19c-1.56,0-2.94,1.66-3.92,3.41
		l-1,7.38h-2.12l1.73-12.3h1.82l-0.19,2.4c1.14-1.61,2.5-2.69,4.27-2.69C708.39,108.81,709.54,110.31,709.19,112.76z"/>
</g>
<line fill="none" stroke="#0081BC" stroke-width="4.863" stroke-miterlimit="10" x1="389.84" y1="199.05" x2="436.65" y2="252.06"/>
<path fill="#0081BC" d="M449.41,266.51c-2.98-4.99-6.72-14.08-8.16-21.38l-12.05,10.64C436.27,258.11,444.83,262.94,449.41,266.51"
	/>
<g>
	<path fill="#0081BC" d="M343.24,226.19l-2.43,17.23h-1.87l0.02-2.03c-0.86,1.42-2.12,2.31-3.71,2.31c-2.54,0-3.9-1.91-3.9-4.88
		c0-3.18,1.52-7.98,5.72-7.98c1.45,0,2.47,0.68,3.15,1.54l0.91-6.42L343.24,226.19z M333.62,238.98c0,2.08,0.77,3.01,2.05,3.01
		c1.52,0,2.52-1.12,3.62-2.85l0.72-5.11c-0.63-0.96-1.4-1.49-2.54-1.49C334.49,232.54,333.62,236.53,333.62,238.98z"/>
	<path fill="#0081BC" d="M347.32,238.84c0.05,2.24,1.1,3.06,2.66,3.06c1.14,0,2.17-0.35,3.29-1.14l0.91,1.45
		c-1.33,0.96-2.78,1.49-4.41,1.49c-3.01,0-4.69-1.89-4.69-5c0-3.36,1.66-7.87,6.33-7.87c2.61,0,3.9,1.49,3.9,3.13
		C355.31,237.42,351.62,238.37,347.32,238.84z M353.07,234.03c0-0.58-0.35-1.49-1.68-1.49c-2.57,0-3.64,2.43-3.95,4.67
		C350.97,236.81,353.07,236.13,353.07,234.03z"/>
	<path fill="#0081BC" d="M368.38,235.67c0,3.46-1.73,8.03-6.54,8.03c-0.84,0-1.56-0.14-2.33-0.4l-0.7,4.88l-2.12,0.28l2.43-17.35
		h1.82l-0.05,1.56c1.31-1.45,2.47-1.84,3.76-1.84C366.98,230.83,368.38,232.56,368.38,235.67z M360.79,234.31l-1,7.31
		c0.77,0.28,1.31,0.37,2.17,0.37c3.06,0,4.2-3.74,4.2-6.49c0-2.19-0.91-2.97-2.19-2.97C362.68,232.54,361.68,233.38,360.79,234.31z"
		/>
	<path fill="#0081BC" d="M373.14,243.42h-2.12l1.73-12.3h2.12L373.14,243.42z M375.9,226.79c-0.12,0.77-0.72,1.33-1.59,1.33
		c-0.93,0-1.47-0.7-1.35-1.56c0.12-0.79,0.75-1.35,1.59-1.35C375.5,225.21,376.01,225.91,375.9,226.79z"/>
	<path fill="#0081BC" d="M387.22,232.19l-1.14,1.33c-0.75-0.65-1.45-0.91-2.4-0.91c-3.1,0-4.02,3.69-4.02,6.23
		c0,2.15,0.93,3.03,2.5,3.03c1.07,0,1.87-0.35,2.85-0.96l0.86,1.49c-1.21,0.86-2.5,1.28-3.85,1.28c-2.92,0-4.6-1.87-4.6-5.02
		c0-3.22,1.68-7.84,6.23-7.84C385.02,230.83,386.21,231.23,387.22,232.19z"/>
	<path fill="#0081BC" d="M391.25,240.17c-0.19,1.24,0.09,1.73,1.1,1.73c0.56,0,1.07-0.19,1.73-0.56l0.7,1.54
		c-0.89,0.56-1.8,0.82-2.78,0.82c-2.12,0-3.2-1.28-2.87-3.57l1.03-7.35h-2.12l0.23-1.66h2.22l0.77-2.85l1.68-0.19l-0.42,3.04h2.9
		l-0.47,1.66h-2.66L391.25,240.17z"/>
	<path fill="#0081BC" d="M405.68,232.35l-1.03,1.28c-0.93-0.72-1.96-1.1-3.04-1.1c-1.49,0-2.45,0.63-2.45,1.66
		c0,0.98,0.82,1.35,2.47,1.87c2.31,0.72,3.48,1.75,3.48,3.69c0,2.73-2.54,3.95-5.11,3.95c-2.15,0-3.6-0.84-4.55-1.77l1.24-1.26
		c0.89,0.79,2.03,1.31,3.41,1.31c2.17,0,2.78-1.19,2.78-2.01c0-1.24-0.63-1.66-2.59-2.26c-2.36-0.72-3.29-1.68-3.29-3.36
		c0-1.63,1.45-3.5,4.65-3.5C403.35,230.83,404.63,231.42,405.68,232.35z"/>
</g>
<line fill="none" stroke="#0081BC" stroke-width="4.863" stroke-miterlimit="10" x1="108.56" y1="265.24" x2="107.26" y2="142.7"/>
<path fill="#0081BC" d="M107.06,123.45c-1.01,5.72-4.12,15.02-7.8,21.48l16.05-0.17C111.5,138.38,108.19,129.14,107.06,123.45"/>
<g>
	<path fill="#0081BC" d="M121.42,194.34h-2.12l1.73-12.3h2.12L121.42,194.34z M124.17,177.72c-0.12,0.77-0.72,1.33-1.59,1.33
		c-0.93,0-1.47-0.7-1.35-1.56c0.12-0.79,0.75-1.35,1.59-1.35C123.77,176.13,124.29,176.83,124.17,177.72z"/>
	<path fill="#0081BC" d="M136.29,185.7l-1.21,8.64h-2.12l1.21-8.59c0.23-1.73-0.37-2.19-1.31-2.19c-1.56,0-2.94,1.66-3.92,3.41
		l-1,7.38h-2.12l1.73-12.3h1.82l-0.19,2.4c1.14-1.61,2.5-2.68,4.27-2.68C135.49,181.75,136.64,183.25,136.29,185.7z"/>
	<path fill="#0081BC" d="M150.2,192.66l0.44,1.56c-0.63,0.28-1.24,0.4-1.82,0.4c-1.59,0-2.38-1-2.12-2.78l1.8-12.84
		c-0.91-0.3-1.59-0.44-2.57-0.44c-1.45,0-2.15,0.65-2.31,1.84l-0.23,1.63h2.96l-0.47,1.66h-2.73l-1.4,9.97
		c-0.49,3.48-1.87,4.48-4.6,5.65l-0.61-1.61c1.68-0.75,2.71-1.4,3.08-4.04l1.4-9.97h-2.17l0.23-1.66h2.17l0.26-1.75
		c0.28-2.05,1.84-3.46,4.39-3.46c1.05,0,1.89,0.14,2.94,0.51l2.03-0.23l-2.08,14.82c-0.09,0.65,0.05,0.91,0.56,0.91
		C149.64,192.84,149.92,192.77,150.2,192.66z"/>
	<path fill="#0081BC" d="M162.22,194.34h-1.82l0.16-2.26c-1.14,1.56-2.36,2.54-4.06,2.54c-2.19,0-3.29-1.42-2.97-3.83l1.24-8.75
		h2.12l-1.21,8.66c-0.23,1.68,0.19,2.24,1.28,2.24c1.54,0,2.78-1.47,3.74-2.89l1.12-8.01h2.12L162.22,194.34z"/>
	<path fill="#0081BC" d="M168.73,189.76c0.05,2.24,1.1,3.06,2.66,3.06c1.14,0,2.17-0.35,3.29-1.14l0.91,1.45
		c-1.33,0.96-2.78,1.49-4.41,1.49c-3.01,0-4.69-1.89-4.69-5c0-3.36,1.66-7.87,6.33-7.87c2.61,0,3.9,1.49,3.9,3.13
		C176.71,188.34,173.03,189.3,168.73,189.76z M174.47,184.95c0-0.58-0.35-1.49-1.68-1.49c-2.57,0-3.64,2.43-3.95,4.67
		C172.37,187.73,174.47,187.05,174.47,184.95z"/>
	<path fill="#0081BC" d="M189.27,185.7l-1.21,8.64h-2.12l1.21-8.59c0.23-1.73-0.37-2.19-1.31-2.19c-1.56,0-2.94,1.66-3.92,3.41
		l-1,7.38h-2.12l1.73-12.3h1.82l-0.19,2.4c1.14-1.61,2.5-2.68,4.27-2.68C188.48,181.75,189.62,183.25,189.27,185.7z"/>
	<path fill="#0081BC" d="M202.02,183.11l-1.14,1.33c-0.75-0.65-1.45-0.91-2.4-0.91c-3.1,0-4.02,3.69-4.02,6.23
		c0,2.15,0.93,3.03,2.5,3.03c1.07,0,1.87-0.35,2.85-0.96l0.86,1.49c-1.21,0.86-2.5,1.28-3.85,1.28c-2.92,0-4.6-1.87-4.6-5.02
		c0-3.22,1.68-7.84,6.23-7.84C199.82,181.75,201.01,182.15,202.02,183.11z"/>
	<path fill="#0081BC" d="M205.47,189.76c0.05,2.24,1.1,3.06,2.66,3.06c1.14,0,2.17-0.35,3.29-1.14l0.91,1.45
		c-1.33,0.96-2.78,1.49-4.41,1.49c-3.01,0-4.69-1.89-4.69-5c0-3.36,1.66-7.87,6.33-7.87c2.61,0,3.9,1.49,3.9,3.13
		C213.45,188.34,209.77,189.3,205.47,189.76z M211.21,184.95c0-0.58-0.35-1.49-1.68-1.49c-2.57,0-3.64,2.43-3.95,4.67
		C209.11,187.73,211.21,187.05,211.21,184.95z"/>
	<path fill="#0081BC" d="M227.39,177.11l-2.43,17.23h-1.87l0.02-2.03c-0.86,1.42-2.12,2.31-3.71,2.31c-2.54,0-3.9-1.91-3.9-4.88
		c0-3.18,1.52-7.98,5.72-7.98c1.45,0,2.47,0.68,3.15,1.54l0.91-6.42L227.39,177.11z M217.77,189.9c0,2.08,0.77,3.01,2.05,3.01
		c1.52,0,2.52-1.12,3.62-2.85l0.72-5.11c-0.63-0.96-1.4-1.49-2.54-1.49C218.63,183.46,217.77,187.45,217.77,189.9z"/>
</g>
<ellipse fill="#4DA7D0" cx="363.41" cy="169.07" rx="94.56" ry="41.34"/>
<g>
	<path fill="#FFFFFF" d="M343.55,163.72c0,3.76-2.66,5.51-6.4,5.51h-1.75v5.39h-3.83v-16.18h5.23
		C340.98,158.44,343.55,160.17,343.55,163.72z M339.6,163.72c0-1.73-0.96-2.54-2.85-2.54h-1.35v5.3h1.42
		C338.55,166.47,339.6,165.75,339.6,163.72z"/>
	<path fill="#FFFFFF" d="M355.96,174.62h-3.2l-0.16-1.56c-0.91,1.31-2.12,1.96-3.76,1.96c-2.31,0-3.46-1.49-3.46-3.9v-8.89h3.69
		v8.43c0,1.26,0.42,1.63,1.19,1.63s1.47-0.51,2.01-1.45v-8.61h3.69V174.62z"/>
	<path fill="#FFFFFF" d="M370.48,168.38c0,3.83-1.87,6.63-4.93,6.63c-1.21,0-2.24-0.42-3.01-1.31v5.7l-3.69,0.4v-17.58h3.25
		l0.19,1.38c1.03-1.28,2.36-1.77,3.5-1.77C369.06,161.82,370.48,164.37,370.48,168.38z M366.65,168.43c0-3.08-0.75-3.9-2.03-3.9
		c-0.79,0-1.54,0.54-2.08,1.45v5.23c0.51,0.75,1.12,1.1,1.89,1.1C365.81,172.31,366.65,171.21,366.65,168.43z"/>
	<path fill="#FFFFFF" d="M384.42,168.38c0,3.83-1.87,6.63-4.93,6.63c-1.21,0-2.24-0.42-3.01-1.31v5.7l-3.69,0.4v-17.58h3.25
		l0.19,1.38c1.03-1.28,2.36-1.77,3.5-1.77C382.99,161.82,384.42,164.37,384.42,168.38z M380.59,168.43c0-3.08-0.75-3.9-2.03-3.9
		c-0.79,0-1.54,0.54-2.08,1.45v5.23c0.51,0.75,1.12,1.1,1.89,1.1C379.75,172.31,380.59,171.21,380.59,168.43z"/>
	<path fill="#FFFFFF" d="M393.57,174.64c-0.98,3.13-3.08,4.95-6.98,5.16l-0.4-2.59c2.43-0.3,3.31-1,3.99-2.59h-1.26l-3.78-12.4h3.92
		l2.22,10.04l2.43-10.04h3.81L393.57,174.64z"/>
</g>
<ellipse fill="#4DA7D0" cx="538.43" cy="52.24" rx="94.56" ry="41.34"/>
<g>
	<path fill="#FFFFFF" d="M484.67,43.99l-1.98,2.08c-1.05-0.89-1.94-1.28-3.25-1.28c-2.26,0-3.95,1.68-3.95,5.7
		c0,4.25,1.12,5.7,3.36,5.7c0.79,0,1.52-0.16,2.2-0.54v-3.67h-2.1l-0.37-2.71h6.19v8.01c-1.66,1.07-3.76,1.7-5.88,1.7
		c-4.88,0-7.35-2.96-7.35-8.5c0-5.49,3.43-8.47,7.73-8.47C481.58,42.01,483.33,42.83,484.67,43.99z"/>
	<path fill="#FFFFFF" d="M497.71,58.59h-3.2l-0.16-1.56c-0.91,1.31-2.12,1.96-3.76,1.96c-2.31,0-3.46-1.49-3.46-3.9v-8.89h3.69v8.43
		c0,1.26,0.42,1.63,1.19,1.63s1.47-0.51,2.01-1.45v-8.61h3.69V58.59z"/>
	<path fill="#FFFFFF" d="M512.02,46.91c-0.86,0.35-2.01,0.49-3.57,0.49c1.56,0.68,2.33,1.59,2.33,3.2c0,2.4-1.98,4.16-5.21,4.16
		c-0.51,0-0.98-0.05-1.42-0.14c-0.26,0.14-0.4,0.42-0.4,0.7c0,0.37,0.16,0.75,1.35,0.75h1.87c2.89,0,4.74,1.52,4.74,3.6
		c0,2.54-2.24,4.11-6.49,4.11c-4.69,0-5.93-1.54-5.93-3.99h3.32c0,1.07,0.47,1.54,2.71,1.54c2.17,0,2.68-0.61,2.68-1.4
		c0-0.72-0.54-1.21-1.77-1.21h-1.8c-2.71,0-3.81-1.12-3.81-2.45c0-0.91,0.58-1.82,1.47-2.38c-1.59-0.84-2.22-1.94-2.22-3.55
		c0-2.8,2.19-4.53,5.44-4.53c2.75,0.07,4.34-0.72,5.84-1.61L512.02,46.91z M503.55,50.27c0,1.35,0.75,2.1,1.87,2.1
		c1.21,0,1.87-0.72,1.87-2.15c0-1.38-0.63-2.01-1.87-2.01C504.27,48.22,503.55,48.99,503.55,50.27z"/>
	<path fill="#FFFFFF" d="M524.88,46.91c-0.86,0.35-2.01,0.49-3.57,0.49c1.56,0.68,2.33,1.59,2.33,3.2c0,2.4-1.98,4.16-5.21,4.16
		c-0.51,0-0.98-0.05-1.42-0.14c-0.26,0.14-0.4,0.42-0.4,0.7c0,0.37,0.16,0.75,1.35,0.75h1.87c2.89,0,4.74,1.52,4.74,3.6
		c0,2.54-2.24,4.11-6.49,4.11c-4.69,0-5.93-1.54-5.93-3.99h3.32c0,1.07,0.47,1.54,2.71,1.54c2.17,0,2.68-0.61,2.68-1.4
		c0-0.72-0.54-1.21-1.77-1.21h-1.8c-2.71,0-3.81-1.12-3.81-2.45c0-0.91,0.58-1.82,1.47-2.38c-1.59-0.84-2.22-1.94-2.22-3.55
		c0-2.8,2.19-4.53,5.44-4.53c2.75,0.07,4.34-0.72,5.84-1.61L524.88,46.91z M516.41,50.27c0,1.35,0.75,2.1,1.87,2.1
		c1.21,0,1.87-0.72,1.87-2.15c0-1.38-0.63-2.01-1.87-2.01C517.13,48.22,516.41,48.99,516.41,50.27z"/>
	<path fill="#FFFFFF" d="M537.07,53.47h-7.66c0.23,2.22,1.28,2.82,2.8,2.82c1,0,1.89-0.35,2.96-1.1l1.52,2.05
		c-1.24,0.98-2.83,1.73-4.83,1.73c-4.13,0-6.23-2.66-6.23-6.54c0-3.71,2.03-6.65,5.79-6.65c3.55,0,5.72,2.33,5.72,6.35
		C537.14,52.54,537.11,53.1,537.07,53.47z M533.52,51.09c-0.02-1.68-0.54-2.85-2.01-2.85c-1.24,0-1.94,0.77-2.12,3.01h4.13V51.09z"
		/>
	<path fill="#FFFFFF" d="M549.95,49.53v9.06h-3.69v-8.43c0-1.31-0.44-1.66-1.17-1.66c-0.82,0-1.49,0.58-2.15,1.61v8.47h-3.69v-12.4
		h3.22l0.26,1.47c1.05-1.21,2.24-1.87,3.78-1.87C548.67,45.79,549.95,47.17,549.95,49.53z"/>
	<path fill="#FFFFFF" d="M563.42,49.53v9.06h-3.69v-8.43c0-1.31-0.47-1.66-1.17-1.66c-0.82,0-1.49,0.58-2.15,1.59v8.5h-3.69V41.26
		l3.69-0.37v6.61c1-1.12,2.12-1.7,3.57-1.7C562.14,45.79,563.42,47.17,563.42,49.53z"/>
	<path fill="#FFFFFF" d="M576.94,53.47h-7.66c0.23,2.22,1.28,2.82,2.8,2.82c1,0,1.89-0.35,2.96-1.1l1.52,2.05
		c-1.24,0.98-2.83,1.73-4.83,1.73c-4.13,0-6.23-2.66-6.23-6.54c0-3.71,2.03-6.65,5.79-6.65c3.55,0,5.72,2.33,5.72,6.35
		C577.01,52.54,576.98,53.1,576.94,53.47z M573.39,51.09c-0.02-1.68-0.54-2.85-2.01-2.85c-1.24,0-1.94,0.77-2.12,3.01h4.13V51.09z"
		/>
	<path fill="#FFFFFF" d="M583.14,41.75c0,1.19-0.91,2.1-2.19,2.1s-2.17-0.91-2.17-2.1c0-1.19,0.89-2.1,2.17-2.1
		S583.14,40.56,583.14,41.75z M582.82,58.59h-3.69v-12.4h3.69V58.59z"/>
	<path fill="#FFFFFF" d="M602.66,49.53v9.06h-3.69v-8.43c0-1.31-0.49-1.66-1.05-1.66c-0.79,0-1.35,0.58-1.89,1.61v8.47h-3.69v-8.43
		c0-1.31-0.49-1.66-1.05-1.66c-0.77,0-1.35,0.58-1.89,1.61v8.47h-3.69v-12.4h3.22l0.26,1.45c0.96-1.21,2.08-1.84,3.6-1.84
		c1.38,0,2.43,0.7,2.92,1.96c0.98-1.28,2.12-1.96,3.71-1.96C601.33,45.79,602.66,47.17,602.66,49.53z"/>
</g>
<ellipse fill="#4DA7D0" cx="106.56" cy="81.63" rx="94.56" ry="41.34"/>
<g>
	<path fill="#FFFFFF" d="M55.72,87.89c0,4.09-2.47,5.51-5.21,6.4l-1.03-2.71c2.1-0.82,2.4-1.91,2.4-3.83V74.16h3.83V87.89z"/>
	<path fill="#FFFFFF" d="M69.33,85.23h-7.66c0.23,2.22,1.28,2.82,2.8,2.82c1,0,1.89-0.35,2.96-1.1l1.52,2.05
		c-1.24,0.98-2.82,1.73-4.83,1.73c-4.13,0-6.23-2.66-6.23-6.54c0-3.71,2.03-6.65,5.79-6.65c3.55,0,5.72,2.33,5.72,6.35
		C69.4,84.3,69.37,84.86,69.33,85.23z M65.78,82.85C65.75,81.17,65.24,80,63.77,80c-1.24,0-1.94,0.77-2.12,3.01h4.13V82.85z"/>
	<path fill="#FFFFFF" d="M75.7,76.99v0.96h2.92l-0.4,2.57H75.7v9.83h-3.69v-9.83h-1.87v-2.57h1.87v-1.1c0-2.38,1.56-4.23,4.74-4.23
		c1.28,0,2.48,0.33,3.39,0.79l-1,2.4c-0.7-0.35-1.4-0.47-1.94-0.47C76.12,75.35,75.7,75.82,75.7,76.99z"/>
	<path fill="#FFFFFF" d="M84.01,76.99v0.96h2.92l-0.4,2.57h-2.52v9.83h-3.69v-9.83h-1.87v-2.57h1.87v-1.1
		c0-2.38,1.56-4.23,4.74-4.23c1.28,0,2.48,0.33,3.39,0.79l-1,2.4c-0.7-0.35-1.4-0.47-1.94-0.47C84.43,75.35,84.01,75.82,84.01,76.99
		z"/>
	<path fill="#FFFFFF" d="M99.81,90.34h-3.83V74.16h3.83V90.34z M103.94,81.42l5.58,8.92h-4.44l-5.16-8.64l5.14-7.54h4.04
		L103.94,81.42z"/>
	<path fill="#FFFFFF" d="M121.26,84.16c0,3.97-2.29,6.58-6.07,6.58c-3.76,0-6.07-2.43-6.07-6.61c0-3.97,2.29-6.58,6.07-6.58
		C118.97,77.55,121.26,79.98,121.26,84.16z M112.95,84.13c0,2.75,0.75,3.9,2.24,3.9s2.24-1.19,2.24-3.88c0-2.75-0.75-3.9-2.24-3.9
		S112.95,81.45,112.95,84.13z"/>
	<path fill="#FFFFFF" d="M134.89,84.16c0,3.97-2.29,6.58-6.07,6.58c-3.76,0-6.07-2.43-6.07-6.61c0-3.97,2.29-6.58,6.07-6.58
		C132.6,77.55,134.89,79.98,134.89,84.16z M126.58,84.13c0,2.75,0.75,3.9,2.24,3.9s2.24-1.19,2.24-3.88c0-2.75-0.75-3.9-2.24-3.9
		S126.58,81.45,126.58,84.13z"/>
	<path fill="#FFFFFF" d="M147.78,81.28v9.06h-3.69v-8.43c0-1.31-0.44-1.66-1.17-1.66c-0.82,0-1.49,0.58-2.15,1.61v8.47h-3.69v-12.4
		h3.22l0.26,1.47c1.05-1.21,2.24-1.87,3.78-1.87C146.49,77.55,147.78,78.93,147.78,81.28z"/>
	<path fill="#FFFFFF" d="M159.47,79.07l-1.35,2.08c-0.96-0.61-1.98-0.96-3.06-0.96c-1,0-1.49,0.37-1.49,0.93
		c0,0.65,0.33,0.93,2.54,1.59c2.45,0.7,3.83,1.73,3.83,3.95c0,2.57-2.43,4.09-5.51,4.09c-2.15,0-3.97-0.75-5.18-1.84l1.8-2.01
		c0.93,0.72,2.08,1.21,3.29,1.21c1.12,0,1.8-0.42,1.8-1.17c0-0.84-0.37-1.1-2.61-1.73c-2.45-0.7-3.67-1.96-3.67-3.88
		c0-2.12,1.94-3.78,5.07-3.78C156.72,77.55,158.33,78.13,159.47,79.07z"/>
</g>
<ellipse fill="#4DA7D0" cx="108.81" cy="294.89" rx="94.56" ry="41.34"/>
<g>
	<path fill="#FFFFFF" d="M82.82,292.32c0,3.76-2.66,5.51-6.4,5.51h-1.75v5.39h-3.83v-16.18h5.23
		C80.26,287.04,82.82,288.77,82.82,292.32z M78.88,292.32c0-1.73-0.96-2.54-2.85-2.54h-1.35v5.3h1.42
		C77.83,295.07,78.88,294.35,78.88,292.32z"/>
	<path fill="#FFFFFF" d="M88.8,286.39c0,1.19-0.91,2.1-2.19,2.1c-1.28,0-2.17-0.91-2.17-2.1c0-1.19,0.89-2.1,2.17-2.1
		C87.89,284.29,88.8,285.2,88.8,286.39z M88.47,303.22h-3.69v-12.4h3.69V303.22z"/>
	<path fill="#FFFFFF" d="M100.98,291.95l-1.59,2.19c-0.79-0.61-1.52-0.89-2.36-0.89c-1.59,0-2.5,1.07-2.5,3.85
		c0,2.75,0.98,3.59,2.45,3.59c0.89,0,1.49-0.28,2.38-0.84l1.61,2.29c-1.14,0.91-2.47,1.47-4.18,1.47c-3.81,0-6.14-2.57-6.14-6.49
		c0-3.94,2.36-6.7,6.07-6.7C98.46,290.43,99.79,290.94,100.98,291.95z"/>
	<path fill="#FFFFFF" d="M113.24,301.14l-0.77,2.41c-1.45-0.12-2.4-0.56-2.99-1.77c-0.89,1.35-2.26,1.84-3.74,1.84
		c-2.47,0-4.04-1.61-4.04-3.88c0-2.71,2.05-4.18,5.81-4.18h1.26v-0.54c0-1.47-0.58-1.91-2.1-1.91c-0.79,0-2.01,0.23-3.25,0.65
		l-0.84-2.43c1.56-0.58,3.27-0.91,4.67-0.91c3.6,0,5.14,1.52,5.14,4.39v4.81C112.4,300.58,112.65,300.93,113.24,301.14z
		 M108.78,299.81v-2.22h-0.91c-1.68,0-2.5,0.58-2.5,1.82c0,0.98,0.54,1.56,1.45,1.56C107.66,300.98,108.34,300.54,108.78,299.81z"/>
	<path fill="#FFFFFF" d="M124.26,291.95l-1.35,2.08c-0.96-0.61-1.98-0.96-3.06-0.96c-1,0-1.49,0.37-1.49,0.93
		c0,0.65,0.33,0.93,2.54,1.59c2.45,0.7,3.83,1.73,3.83,3.95c0,2.57-2.43,4.08-5.51,4.08c-2.15,0-3.97-0.75-5.18-1.84l1.8-2.01
		c0.93,0.72,2.08,1.21,3.29,1.21c1.12,0,1.8-0.42,1.8-1.17c0-0.84-0.37-1.1-2.61-1.73c-2.45-0.7-3.67-1.96-3.67-3.88
		c0-2.12,1.94-3.78,5.07-3.78C121.5,290.43,123.11,291.01,124.26,291.95z"/>
	<path fill="#FFFFFF" d="M135.53,291.95l-1.35,2.08c-0.96-0.61-1.98-0.96-3.06-0.96c-1,0-1.49,0.37-1.49,0.93
		c0,0.65,0.33,0.93,2.54,1.59c2.45,0.7,3.83,1.73,3.83,3.95c0,2.57-2.43,4.08-5.51,4.08c-2.15,0-3.97-0.75-5.18-1.84l1.8-2.01
		c0.93,0.72,2.08,1.21,3.29,1.21c1.12,0,1.8-0.42,1.8-1.17c0-0.84-0.37-1.1-2.61-1.73c-2.45-0.7-3.67-1.96-3.67-3.88
		c0-2.12,1.94-3.78,5.07-3.78C132.77,290.43,134.39,291.01,135.53,291.95z"/>
	<path fill="#FFFFFF" d="M149.33,297.04c0,3.97-2.29,6.58-6.07,6.58c-3.76,0-6.07-2.43-6.07-6.61c0-3.97,2.29-6.58,6.07-6.58
		C147.04,290.43,149.33,292.86,149.33,297.04z M141.01,297.01c0,2.75,0.75,3.9,2.24,3.9s2.24-1.19,2.24-3.88
		c0-2.75-0.75-3.9-2.24-3.9S141.01,294.33,141.01,297.01z"/>
</g>
<ellipse fill="#4DA7D0" cx="483.96" cy="305.59" rx="94.56" ry="41.34"/>
<g>
	<path fill="#FFFFFF" d="M476.86,302.97c0,6.51-3.92,8.17-8.05,8.17h-4.86v-16.18h4.51C472.78,294.96,476.86,296.29,476.86,302.97z
		 M467.78,297.74v10.62h1.26c2.31,0,3.85-1.1,3.85-5.39c0-4.34-1.66-5.23-3.9-5.23H467.78z"/>
	<path fill="#FFFFFF" d="M490.52,304.95c0,3.97-2.29,6.58-6.07,6.58c-3.76,0-6.07-2.43-6.07-6.61c0-3.97,2.29-6.58,6.07-6.58
		C488.23,298.34,490.52,300.77,490.52,304.95z M482.21,304.93c0,2.75,0.75,3.9,2.24,3.9s2.24-1.19,2.24-3.88
		c0-2.75-0.75-3.9-2.24-3.9S482.21,302.24,482.21,304.93z"/>
	<path fill="#FFFFFF" d="M504.13,299.46c-0.86,0.35-2.01,0.49-3.57,0.49c1.56,0.68,2.33,1.59,2.33,3.2c0,2.4-1.98,4.16-5.21,4.16
		c-0.51,0-0.98-0.05-1.42-0.14c-0.26,0.14-0.4,0.42-0.4,0.7c0,0.37,0.16,0.75,1.35,0.75h1.87c2.89,0,4.74,1.52,4.74,3.6
		c0,2.54-2.24,4.11-6.49,4.11c-4.69,0-5.93-1.54-5.93-3.99h3.32c0,1.07,0.47,1.54,2.71,1.54c2.17,0,2.68-0.61,2.68-1.4
		c0-0.72-0.54-1.21-1.77-1.21h-1.8c-2.71,0-3.81-1.12-3.81-2.45c0-0.91,0.58-1.82,1.47-2.38c-1.59-0.84-2.22-1.94-2.22-3.55
		c0-2.8,2.19-4.53,5.44-4.53c2.75,0.07,4.34-0.72,5.84-1.61L504.13,299.46z M495.65,302.83c0,1.35,0.75,2.1,1.87,2.1
		c1.21,0,1.87-0.72,1.87-2.15c0-1.38-0.63-2.01-1.87-2.01C496.38,300.77,495.65,301.54,495.65,302.83z"/>
</g>
<ellipse fill="#4DA7D0" cx="690.44" cy="211.66" rx="94.56" ry="41.34"/>
<g>
	<path fill="#FFFFFF" d="M669.95,215.66c0,3.69-2.99,4.72-7.05,4.72h-5.21V204.2h4.58c4.34,0,7,1.1,7,4.13
		c0,2.05-1.47,3.13-2.96,3.48C668.11,212.16,669.95,213.04,669.95,215.66z M661.53,206.9v3.76h1.42c1.59,0,2.43-0.61,2.43-1.96
		s-0.89-1.8-2.73-1.8H661.53z M666.01,215.45c0-1.63-1.14-2.24-2.8-2.24h-1.68v4.39h1.4C664.72,217.6,666.01,217.22,666.01,215.45z"
		/>
	<path fill="#FFFFFF" d="M676.04,203.54c0,1.19-0.91,2.1-2.19,2.1s-2.17-0.91-2.17-2.1c0-1.19,0.89-2.1,2.17-2.1
		S676.04,202.35,676.04,203.54z M675.72,220.37h-3.69v-12.4h3.69V220.37z"/>
	<path fill="#FFFFFF" d="M678.49,217.22v-14.17l3.69-0.4v14.43c0,0.51,0.19,0.77,0.63,0.77c0.26,0,0.44-0.05,0.61-0.12l0.72,2.61
		c-0.56,0.23-1.35,0.42-2.24,0.42C679.75,220.77,678.49,219.49,678.49,217.22z"/>
	<path fill="#FFFFFF" d="M697.17,214.19c0,3.83-1.84,6.58-4.93,6.58c-1.38,0-2.5-0.58-3.25-1.59l-0.19,1.19h-3.27v-17.32l3.69-0.4
		v6.58c0.72-1,1.98-1.66,3.27-1.66C695.56,207.58,697.17,210.03,697.17,214.19z M693.34,214.19c0-3.15-0.84-3.9-1.98-3.9
		c-0.89,0-1.59,0.54-2.12,1.45v5.14c0.47,0.77,1.14,1.21,1.96,1.21C692.45,218.09,693.34,217.08,693.34,214.19z"/>
	<path fill="#FFFFFF" d="M710.17,218.3l-0.77,2.4c-1.45-0.12-2.4-0.56-2.99-1.77c-0.89,1.35-2.26,1.84-3.74,1.84
		c-2.47,0-4.04-1.61-4.04-3.88c0-2.71,2.05-4.18,5.81-4.18h1.26v-0.54c0-1.47-0.58-1.91-2.1-1.91c-0.79,0-2.01,0.23-3.25,0.65
		l-0.84-2.43c1.56-0.58,3.27-0.91,4.67-0.91c3.6,0,5.14,1.52,5.14,4.39v4.81C709.33,217.74,709.59,218.09,710.17,218.3z
		 M705.71,216.97v-2.22h-0.91c-1.68,0-2.5,0.58-2.5,1.82c0,0.98,0.54,1.56,1.45,1.56C704.59,218.13,705.27,217.69,705.71,216.97z"/>
	<path fill="#FFFFFF" d="M723.71,214.19c0,3.97-2.29,6.58-6.07,6.58c-3.76,0-6.07-2.43-6.07-6.61c0-3.97,2.29-6.58,6.07-6.58
		C721.42,207.58,723.71,210.01,723.71,214.19z M715.4,214.16c0,2.75,0.75,3.9,2.24,3.9s2.24-1.19,2.24-3.88
		c0-2.75-0.75-3.9-2.24-3.9S715.4,211.48,715.4,214.16z"/>
</g>
</svg>
