<?xml version="1.0" encoding="utf-8"?>
<svg version="1.1" id="Layer_1" xmlns="http://www.w3.org/2000/svg" xmlns:xlink="http://www.w3.org/1999/xlink" x="0px" y="0px"
	 width="800px" height="600px" viewBox="0 0 800 600" enable-background="new 0 0 800 600" xml:space="preserve">
<rect x="128.39" y="224.67" fill="#0081BC" width="31.08" height="23.31"/>
<rect x="171.13" y="224.67" fill="#0081BC" width="77.71" height="23.31"/>
<rect x="260.5" y="224.67" fill="#0081BC" width="77.71" height="23.31"/>
<rect x="349.86" y="224.67" opacity="0.5" fill="#0081BC" width="31.08" height="23.31"/>
<rect x="392.6" y="224.67" opacity="0.7" fill="#0081BC" width="31.08" height="23.31"/>
<path fill="#59ADD3" d="M149.76,267.41H138.1c-5.36,0-9.71,4.35-9.71,9.71v3.89c0,5.36,4.35,9.71,9.71,9.71h11.66
	c5.36,0,9.71-4.35,9.71-9.71v-3.89C159.47,271.76,155.13,267.41,149.76,267.41z"/>
<path fill="#59ADD3" d="M239.13,267.41h-58.28c-5.36,0-9.71,4.35-9.71,9.71v3.89c0,5.36,4.35,9.71,9.71,9.71h58.28
	c5.36,0,9.71-4.35,9.71-9.71v-3.89C248.84,271.76,244.49,267.41,239.13,267.41z"/>
<path fill="#59ADD3" d="M328.49,267.41h-58.28c-5.36,0-9.71,4.35-9.71,9.71v3.89c0,5.36,4.35,9.71,9.71,9.71h58.28
	c5.36,0,9.71-4.35,9.71-9.71v-3.89C338.21,271.76,333.86,267.41,328.49,267.41z"/>
<path opacity="0.5" fill="#59ADD3" d="M371.23,267.41h-11.66c-5.36,0-9.71,4.35-9.71,9.71v3.89c0,5.36,4.35,9.71,9.71,9.71h11.66
	c5.36,0,9.71-4.35,9.71-9.71v-3.89C380.94,271.76,376.59,267.41,371.23,267.41z"/>
<path opacity="0.7" fill="#59ADD3" d="M413.97,267.41h-11.66c-5.36,0-9.71,4.35-9.71,9.71v3.89c0,5.36,4.35,9.71,9.71,9.71h11.66
	c5.36,0,9.71-4.35,9.71-9.71v-3.89C423.68,271.76,419.33,267.41,413.97,267.41z"/>
<path fill="#59ADD3" d="M149.76,310.15H138.1c-5.36,0-9.71,4.35-9.71,9.71v3.89c0,5.36,4.35,9.71,9.71,9.71h11.66
	c5.36,0,9.71-4.35,9.71-9.71v-3.89C159.47,314.5,155.13,310.15,149.76,310.15z"/>
<path fill="#59ADD3" d="M239.13,310.15h-58.28c-5.36,0-9.71,4.35-9.71,9.71v3.89c0,5.36,4.35,9.71,9.71,9.71h58.28
	c5.36,0,9.71-4.35,9.71-9.71v-3.89C248.84,314.5,244.49,310.15,239.13,310.15z"/>
<path fill="#59ADD3" d="M328.49,310.15h-58.28c-5.36,0-9.71,4.35-9.71,9.71v3.89c0,5.36,4.35,9.71,9.71,9.71h58.28
	c5.36,0,9.71-4.35,9.71-9.71v-3.89C338.21,314.5,333.86,310.15,328.49,310.15z"/>
<path opacity="0.5" fill="#59ADD3" d="M371.23,310.15h-11.66c-5.36,0-9.71,4.35-9.71,9.71v3.89c0,5.36,4.35,9.71,9.71,9.71h11.66
	c5.36,0,9.71-4.35,9.71-9.71v-3.89C380.94,314.5,376.59,310.15,371.23,310.15z"/>
<path opacity="0.7" fill="#59ADD3" d="M413.97,310.15h-11.66c-5.36,0-9.71,4.35-9.71,9.71v3.89c0,5.36,4.35,9.71,9.71,9.71h11.66
	c5.36,0,9.71-4.35,9.71-9.71v-3.89C423.68,314.5,419.33,310.15,413.97,310.15z"/>
<path fill="#59ADD3" d="M149.76,352.89H138.1c-5.36,0-9.71,4.35-9.71,9.71v3.89c0,5.36,4.35,9.71,9.71,9.71h11.66
	c5.36,0,9.71-4.35,9.71-9.71v-3.89C159.47,357.24,155.13,352.89,149.76,352.89z"/>
<path fill="#59ADD3" d="M239.13,352.89h-58.28c-5.36,0-9.71,4.35-9.71,9.71v3.89c0,5.36,4.35,9.71,9.71,9.71h58.28
	c5.36,0,9.71-4.35,9.71-9.71v-3.89C248.84,357.24,244.49,352.89,239.13,352.89z"/>
<path fill="#59ADD3" d="M328.49,352.89h-58.28c-5.36,0-9.71,4.35-9.71,9.71v3.89c0,5.36,4.35,9.71,9.71,9.71h58.28
	c5.36,0,9.71-4.35,9.71-9.71v-3.89C338.21,357.24,333.86,352.89,328.49,352.89z"/>
<path opacity="0.5" fill="#59ADD3" d="M371.23,352.89h-11.66c-5.36,0-9.71,4.35-9.71,9.71v3.89c0,5.36,4.35,9.71,9.71,9.71h11.66
	c5.36,0,9.71-4.35,9.71-9.71v-3.89C380.94,357.24,376.59,352.89,371.23,352.89z"/>
<path opacity="0.7" fill="#59ADD3" d="M413.97,352.89h-11.66c-5.36,0-9.71,4.35-9.71,9.71v3.89c0,5.36,4.35,9.71,9.71,9.71h11.66
	c5.36,0,9.71-4.35,9.71-9.71v-3.89C423.68,357.24,419.33,352.89,413.97,352.89z"/>
<path fill="#59ADD3" d="M149.76,395.63H138.1c-5.36,0-9.71,4.35-9.71,9.71v3.89c0,5.36,4.35,9.71,9.71,9.71h11.66
	c5.36,0,9.71-4.35,9.71-9.71v-3.89C159.47,399.98,155.13,395.63,149.76,395.63z"/>
<path fill="#59ADD3" d="M239.13,395.63h-58.28c-5.36,0-9.71,4.35-9.71,9.71v3.89c0,5.36,4.35,9.71,9.71,9.71h58.28
	c5.36,0,9.71-4.35,9.71-9.71v-3.89C248.84,399.98,244.49,395.63,239.13,395.63z"/>
<path fill="#59ADD3" d="M328.49,395.63h-58.28c-5.36,0-9.71,4.35-9.71,9.71v3.89c0,5.36,4.35,9.71,9.71,9.71h58.28
	c5.36,0,9.71-4.35,9.71-9.71v-3.89C338.21,399.98,333.86,395.63,328.49,395.63z"/>
<path opacity="0.5" fill="#59ADD3" d="M371.23,395.63h-11.66c-5.36,0-9.71,4.35-9.71,9.71v3.89c0,5.36,4.35,9.71,9.71,9.71h11.66
	c5.36,0,9.71-4.35,9.71-9.71v-3.89C380.94,399.98,376.59,395.63,371.23,395.63z"/>
<path opacity="0.7" fill="#59ADD3" d="M413.97,395.63h-11.66c-5.36,0-9.71,4.35-9.71,9.71v3.89c0,5.36,4.35,9.71,9.71,9.71h11.66
	c5.36,0,9.71-4.35,9.71-9.71v-3.89C423.68,399.98,419.33,395.63,413.97,395.63z"/>
<rect x="487.4" y="28.85" opacity="0.5" fill="#0081BC" width="31.08" height="23.31"/>
<rect x="530.14" y="28.85" opacity="0.5" fill="#0081BC" width="77.71" height="23.31"/>
<rect x="619.51" y="28.85" opacity="0.5" fill="#0081BC" width="77.71" height="23.31"/>
<path opacity="0.5" fill="#59ADD3" d="M508.77,71.59h-11.66c-5.36,0-9.71,4.35-9.71,9.71v3.89c0,5.36,4.35,9.71,9.71,9.71h11.66
	c5.36,0,9.71-4.35,9.71-9.71v-3.89C518.48,75.94,514.14,71.59,508.77,71.59z"/>
<path opacity="0.5" fill="#59ADD3" d="M598.14,71.59h-58.28c-5.36,0-9.71,4.35-9.71,9.71v3.89c0,5.36,4.35,9.71,9.71,9.71h58.28
	c5.36,0,9.71-4.35,9.71-9.71v-3.89C607.85,75.94,603.5,71.59,598.14,71.59z"/>
<path opacity="0.5" fill="#59ADD3" d="M687.5,71.59h-58.28c-5.36,0-9.71,4.35-9.71,9.71v3.89c0,5.36,4.35,9.71,9.71,9.71h58.28
	c5.36,0,9.71-4.35,9.71-9.71v-3.89C697.22,75.94,692.87,71.59,687.5,71.59z"/>
<path opacity="0.5" fill="#59ADD3" d="M508.77,114.33h-11.66c-5.36,0-9.71,4.35-9.71,9.71v3.89c0,5.36,4.35,9.71,9.71,9.71h11.66
	c5.36,0,9.71-4.35,9.71-9.71v-3.89C518.48,118.68,514.14,114.33,508.77,114.33z"/>
<path opacity="0.5" fill="#59ADD3" d="M598.14,114.33h-58.28c-5.36,0-9.71,4.35-9.71,9.71v3.89c0,5.36,4.35,9.71,9.71,9.71h58.28
	c5.36,0,9.71-4.35,9.71-9.71v-3.89C607.85,118.68,603.5,114.33,598.14,114.33z"/>
<path opacity="0.5" fill="#59ADD3" d="M687.5,114.33h-58.28c-5.36,0-9.71,4.35-9.71,9.71v3.89c0,5.36,4.35,9.71,9.71,9.71h58.28
	c5.36,0,9.71-4.35,9.71-9.71v-3.89C697.22,118.68,692.87,114.33,687.5,114.33z"/>
<path opacity="0.5" fill="#59ADD3" d="M508.77,157.07h-11.66c-5.36,0-9.71,4.35-9.71,9.71v3.89c0,5.36,4.35,9.71,9.71,9.71h11.66
	c5.36,0,9.71-4.35,9.71-9.71v-3.89C518.48,161.42,514.14,157.07,508.77,157.07z"/>
<path opacity="0.5" fill="#59ADD3" d="M598.14,157.07h-58.28c-5.36,0-9.71,4.35-9.71,9.71v3.89c0,5.36,4.35,9.71,9.71,9.71h58.28
	c5.36,0,9.71-4.35,9.71-9.71v-3.89C607.85,161.42,603.5,157.07,598.14,157.07z"/>
<path opacity="0.5" fill="#59ADD3" d="M687.5,157.07h-58.28c-5.36,0-9.71,4.35-9.71,9.71v3.89c0,5.36,4.35,9.71,9.71,9.71h58.28
	c5.36,0,9.71-4.35,9.71-9.71v-3.89C697.22,161.42,692.87,157.07,687.5,157.07z"/>
<rect x="487.4" y="463.24" opacity="0.7" fill="#0081BC" width="31.08" height="23.31"/>
<rect x="530.14" y="463.24" opacity="0.7" fill="#0081BC" width="77.71" height="23.31"/>
<rect x="619.51" y="463.24" opacity="0.7" fill="#0081BC" width="77.71" height="23.31"/>
<path opacity="0.7" fill="#59ADD3" d="M508.77,505.98h-11.66c-5.36,0-9.71,4.35-9.71,9.71v3.89c0,5.36,4.35,9.71,9.71,9.71h11.66
	c5.36,0,9.71-4.35,9.71-9.71v-3.89C518.48,510.33,514.14,505.98,508.77,505.98z"/>
<path opacity="0.7" fill="#59ADD3" d="M598.14,505.98h-58.28c-5.36,0-9.71,4.35-9.71,9.71v3.89c0,5.36,4.35,9.71,9.71,9.71h58.28
	c5.36,0,9.71-4.35,9.71-9.71v-3.89C607.85,510.33,603.5,505.98,598.14,505.98z"/>
<path opacity="0.7" fill="#59ADD3" d="M687.5,505.98h-58.28c-5.36,0-9.71,4.35-9.71,9.71v3.89c0,5.36,4.35,9.71,9.71,9.71h58.28
	c5.36,0,9.71-4.35,9.71-9.71v-3.89C697.22,510.33,692.87,505.98,687.5,505.98z"/>
<path opacity="0.7" fill="#59ADD3" d="M508.77,548.72h-11.66c-5.36,0-9.71,4.35-9.71,9.71v3.89c0,5.36,4.35,9.71,9.71,9.71h11.66
	c5.36,0,9.71-4.35,9.71-9.71v-3.89C518.48,553.07,514.14,548.72,508.77,548.72z"/>
<path opacity="0.7" fill="#59ADD3" d="M598.14,548.72h-58.28c-5.36,0-9.71,4.35-9.71,9.71v3.89c0,5.36,4.35,9.71,9.71,9.71h58.28
	c5.36,0,9.71-4.35,9.71-9.71v-3.89C607.85,553.07,603.5,548.72,598.14,548.72z"/>
<path opacity="0.7" fill="#59ADD3" d="M687.5,548.72h-58.28c-5.36,0-9.71,4.35-9.71,9.71v3.89c0,5.36,4.35,9.71,9.71,9.71h58.28
	c5.36,0,9.71-4.35,9.71-9.71v-3.89C697.22,553.07,692.87,548.72,687.5,548.72z"/>
<ellipse transform="matrix(0.9871 -0.1602 0.1602 0.9871 -39.9839 62.1362)" fill="none" stroke="#808080" stroke-width="2.7198" stroke-miterlimit="10" cx="365.41" cy="279.07" rx="18.13" ry="18.13"/>
<path fill="none" stroke="#808080" stroke-width="2.7198" stroke-miterlimit="10" d="M521.09,125.99c0-10.02-8.12-18.13-18.13-18.13
	c-10.02,0-18.13,8.12-18.13,18.13s8.12,18.13,18.13,18.13C512.97,144.12,521.09,136,521.09,125.99z"/>
<path fill="none" stroke="#808080" stroke-width="2.7198" stroke-miterlimit="10" d="M426.29,407.29c0-10.02-8.12-18.13-18.13-18.13
	c-10.02,0-18.13,8.12-18.13,18.13s8.12,18.13,18.13,18.13C418.17,425.43,426.29,417.31,426.29,407.29z"/>
<path fill="none" stroke="#808080" stroke-width="2.7198" stroke-miterlimit="10" d="M521.09,517.64c0-10.02-8.12-18.13-18.13-18.13
	c-10.02,0-18.13,8.12-18.13,18.13c0,10.02,8.12,18.13,18.13,18.13C512.97,535.77,521.09,527.65,521.09,517.64z"/>
<path fill="none" stroke="#808080" stroke-width="2.7198" stroke-miterlimit="10" d="M373.91,263.05
	c31.32-59.06,58.6-89.43,113.98-126.88"/>
<path fill="none" stroke="#808080" stroke-width="2.7198" stroke-miterlimit="10" d="M416.01,423.64
	c18.73,38.97,36.25,59.37,71.95,83.75"/>
<g>
	<path fill="#666666" d="M349.75,481.63L349,486.2c-0.51-0.12-0.89-0.21-1.43-0.21c-1.94,0-2.78,1.43-3.28,3.82v7.91h-4.72v-15.85
		h4.12l0.39,3.04c0.72-2.18,2.27-3.49,4.09-3.49C348.76,481.43,349.24,481.49,349.75,481.63z"/>
	<path fill="#666666" d="M365.27,491.19h-9.79c0.3,2.83,1.64,3.61,3.58,3.61c1.28,0,2.42-0.45,3.79-1.4l1.94,2.63
		c-1.58,1.25-3.61,2.21-6.18,2.21c-5.28,0-7.97-3.4-7.97-8.36c0-4.75,2.6-8.51,7.4-8.51c4.54,0,7.31,2.98,7.31,8.12
		C365.36,489.99,365.33,490.71,365.27,491.19z M360.73,488.14c-0.03-2.15-0.69-3.64-2.57-3.64c-1.58,0-2.48,0.98-2.72,3.85h5.28
		V488.14z"/>
	<path fill="#666666" d="M367.92,493.69v-18.12l4.72-0.51v18.45c0,0.66,0.24,0.98,0.81,0.98c0.33,0,0.57-0.06,0.78-0.15l0.92,3.34
		c-0.72,0.3-1.73,0.54-2.87,0.54C369.53,498.23,367.92,496.59,367.92,493.69z"/>
	<path fill="#666666" d="M390.6,495.07l-0.98,3.07c-1.85-0.15-3.07-0.72-3.82-2.27c-1.13,1.73-2.9,2.36-4.78,2.36
		c-3.16,0-5.16-2.06-5.16-4.96c0-3.46,2.63-5.34,7.43-5.34h1.61v-0.69c0-1.88-0.75-2.45-2.69-2.45c-1.01,0-2.57,0.3-4.15,0.84
		l-1.07-3.1c2-0.75,4.18-1.16,5.97-1.16c4.6,0,6.57,1.94,6.57,5.61v6.15C389.53,494.35,389.85,494.8,390.6,495.07z M384.9,493.36
		v-2.84h-1.16c-2.15,0-3.19,0.75-3.19,2.33c0,1.25,0.69,2,1.85,2C383.47,494.86,384.33,494.29,384.9,493.36z"/>
	<path fill="#666666" d="M403.22,496.98c-1.19,0.84-2.87,1.25-4.3,1.25c-3.49-0.03-5.19-2-5.19-5.73v-7.34h-2.24v-3.28h2.24v-3.43
		l4.72-0.54v3.97h3.64l-0.51,3.28h-3.13v7.28c0,1.52,0.51,2.06,1.49,2.06c0.54,0,1.08-0.15,1.7-0.54L403.22,496.98z"/>
	<path fill="#666666" d="M409.93,476.2c0,1.52-1.16,2.69-2.81,2.69s-2.78-1.16-2.78-2.69c0-1.52,1.13-2.69,2.78-2.69
		S409.93,474.68,409.93,476.2z M409.52,497.72h-4.72v-15.85h4.72V497.72z"/>
	<path fill="#666666" d="M427.84,489.81c0,5.07-2.92,8.42-7.76,8.42c-4.8,0-7.76-3.1-7.76-8.45c0-5.07,2.92-8.42,7.76-8.42
		S427.84,484.47,427.84,489.81z M417.21,489.78c0,3.52,0.96,4.98,2.87,4.98s2.87-1.52,2.87-4.95c0-3.52-0.96-4.98-2.87-4.98
		S417.21,486.35,417.21,489.78z"/>
	<path fill="#666666" d="M444.31,486.14v11.58h-4.72v-10.77c0-1.67-0.57-2.12-1.49-2.12c-1.04,0-1.91,0.75-2.75,2.06v10.83h-4.72
		v-15.85h4.12l0.33,1.88c1.34-1.55,2.87-2.39,4.83-2.39C442.67,481.37,444.31,483.13,444.31,486.14z"/>
</g>
<rect x="122.18" y="218.46" fill="none" stroke="#808080" stroke-width="2.7198" stroke-miterlimit="10" width="43.52" height="206.71"/>
<g>
	<path fill="#666666" d="M79.08,200.2h-4.72v-22.15l4.72-0.51V200.2z M84.06,191.3l5.19,8.89h-5.31l-4.72-8.66l4.84-7.19h4.8
		L84.06,191.3z"/>
	<path fill="#666666" d="M104.56,193.66h-9.79c0.3,2.83,1.64,3.61,3.58,3.61c1.28,0,2.42-0.45,3.79-1.4l1.94,2.63
		c-1.58,1.25-3.61,2.21-6.18,2.21c-5.28,0-7.97-3.4-7.97-8.36c0-4.75,2.6-8.51,7.4-8.51c4.54,0,7.31,2.98,7.31,8.12
		C104.65,192.47,104.62,193.18,104.56,193.66z M100.03,190.62c-0.03-2.15-0.69-3.64-2.57-3.64c-1.58,0-2.48,0.98-2.72,3.85h5.28
		V190.62z"/>
	<path fill="#666666" d="M116.11,200.23c-1.25,4-3.94,6.33-8.92,6.6l-0.51-3.31c3.1-0.39,4.24-1.28,5.1-3.31h-1.61l-4.83-15.85h5.01
		l2.84,12.83l3.1-12.83h4.87L116.11,200.23z"/>
	<path fill="#666666" d="M143.44,185.78l-2.03,2.81c-1.01-0.78-1.94-1.13-3.01-1.13c-2.03,0-3.19,1.37-3.19,4.92
		c0,3.52,1.25,4.6,3.13,4.6c1.13,0,1.91-0.36,3.04-1.07l2.06,2.92c-1.46,1.16-3.16,1.88-5.34,1.88c-4.87,0-7.85-3.28-7.85-8.3
		c0-5.04,3.01-8.57,7.76-8.57C140.22,183.84,141.92,184.5,143.44,185.78z"/>
	<path fill="#666666" d="M160.07,192.29c0,5.07-2.92,8.42-7.76,8.42c-4.81,0-7.76-3.1-7.76-8.45c0-5.07,2.93-8.42,7.76-8.42
		S160.07,186.95,160.07,192.29z M149.44,192.26c0,3.52,0.96,4.98,2.87,4.98s2.87-1.52,2.87-4.95c0-3.52-0.96-4.98-2.87-4.98
		S149.44,188.83,149.44,192.26z"/>
	<path fill="#666666" d="M162.72,196.17v-18.12l4.71-0.51v18.44c0,0.66,0.24,0.98,0.81,0.98c0.33,0,0.57-0.06,0.78-0.15l0.93,3.34
		c-0.72,0.3-1.73,0.54-2.87,0.54C164.33,200.7,162.72,199.06,162.72,196.17z"/>
	<path fill="#666666" d="M185.1,200.2h-4.09l-0.21-2c-1.16,1.67-2.72,2.51-4.8,2.51c-2.96,0-4.42-1.91-4.42-4.98v-11.37h4.72v10.77
		c0,1.61,0.54,2.09,1.52,2.09s1.88-0.66,2.57-1.85v-11.01h4.72V200.2z"/>
	<path fill="#666666" d="M210.47,188.62v11.58h-4.72v-10.77c0-1.67-0.63-2.12-1.34-2.12c-1.02,0-1.73,0.75-2.42,2.06v10.83h-4.72
		v-10.77c0-1.67-0.63-2.12-1.34-2.12c-0.99,0-1.73,0.75-2.42,2.06v10.83h-4.71v-15.85h4.12l0.33,1.85c1.22-1.55,2.66-2.36,4.6-2.36
		c1.76,0,3.1,0.9,3.73,2.51c1.25-1.64,2.72-2.51,4.75-2.51C208.77,183.84,210.47,185.6,210.47,188.62z"/>
	<path fill="#666666" d="M227.68,188.62v11.58h-4.72v-10.77c0-1.67-0.57-2.12-1.49-2.12c-1.04,0-1.91,0.75-2.75,2.06v10.83h-4.71
		v-15.85h4.12l0.33,1.88c1.34-1.55,2.87-2.39,4.83-2.39C226.04,183.84,227.68,185.6,227.68,188.62z"/>
</g>
<rect x="481.2" y="22.63" fill="none" stroke="#808080" stroke-width="2.7198" stroke-miterlimit="10" width="222.25" height="35.75"/>
<g>
	<path fill="#666666" d="M630.66,216.16c-1.19,0.84-2.87,1.25-4.3,1.25c-3.49-0.03-5.19-2-5.19-5.73v-7.34h-2.24v-3.28h2.24v-3.43
		l4.72-0.54v3.97h3.64l-0.51,3.28h-3.13v7.28c0,1.52,0.51,2.06,1.49,2.06c0.54,0,1.08-0.15,1.7-0.54L630.66,216.16z"/>
	<path fill="#666666" d="M645.91,214.25l-0.98,3.07c-1.85-0.15-3.07-0.72-3.82-2.27c-1.13,1.73-2.9,2.36-4.78,2.36
		c-3.16,0-5.16-2.06-5.16-4.95c0-3.46,2.63-5.34,7.43-5.34h1.61v-0.69c0-1.88-0.75-2.45-2.69-2.45c-1.01,0-2.57,0.3-4.15,0.84
		l-1.07-3.1c2-0.75,4.18-1.16,5.97-1.16c4.6,0,6.57,1.94,6.57,5.61v6.15C644.84,213.54,645.16,213.98,645.91,214.25z M640.21,212.55
		v-2.84h-1.16c-2.15,0-3.19,0.75-3.19,2.33c0,1.25,0.69,2,1.85,2C638.78,214.04,639.64,213.48,640.21,212.55z"/>
	<path fill="#666666" d="M663.46,209c0,4.89-2.36,8.42-6.3,8.42c-1.76,0-3.19-0.75-4.15-2.03l-0.24,1.52h-4.18v-22.15l4.72-0.51
		v8.42c0.92-1.28,2.54-2.12,4.18-2.12C661.4,200.55,663.46,203.69,663.46,209z M658.56,209c0-4.03-1.07-4.98-2.54-4.98
		c-1.13,0-2.03,0.69-2.72,1.85v6.57c0.6,0.98,1.46,1.55,2.51,1.55C657.43,213.98,658.56,212.7,658.56,209z"/>
	<path fill="#666666" d="M666.26,212.88v-18.12l4.72-0.51v18.44c0,0.66,0.24,0.98,0.81,0.98c0.33,0,0.57-0.06,0.78-0.15l0.92,3.34
		c-0.72,0.3-1.73,0.54-2.87,0.54C667.87,217.42,666.26,215.77,666.26,212.88z"/>
	<path fill="#666666" d="M689,210.37h-9.79c0.3,2.83,1.64,3.61,3.58,3.61c1.28,0,2.42-0.45,3.79-1.4l1.94,2.63
		c-1.58,1.25-3.61,2.21-6.18,2.21c-5.28,0-7.97-3.4-7.97-8.36c0-4.75,2.6-8.51,7.4-8.51c4.54,0,7.31,2.98,7.31,8.12
		C689.09,209.18,689.06,209.9,689,210.37z M684.46,207.33c-0.03-2.15-0.69-3.64-2.57-3.64c-1.58,0-2.48,0.98-2.72,3.85h5.28V207.33z
		"/>
</g>
</svg>
