<?xml version="1.0" encoding="utf-8"?>
<svg version="1.1" id="Layer_1" xmlns="http://www.w3.org/2000/svg" xmlns:xlink="http://www.w3.org/1999/xlink" x="0px" y="0px"
	 width="800px" height="600px" viewBox="0 0 800 600" enable-background="new 0 0 800 600" xml:space="preserve">
<rect x="150.33" y="200.27" fill="#0081BC" width="77.71" height="23.31"/>
<rect x="239.7" y="200.27" fill="#0081BC" width="77.71" height="23.31"/>
<rect x="329.06" y="200.27" opacity="0.5" fill="#0081BC" width="77.71" height="23.31"/>
<rect x="418.43" y="200.27" opacity="0.5" fill="#0081BC" width="77.71" height="23.31"/>
<rect x="507.79" y="200.27" opacity="0.7" fill="#0081BC" width="77.71" height="23.31"/>
<path fill="#59ADD3" d="M218.33,243.01h-58.28c-5.36,0-9.71,4.35-9.71,9.71v3.89c0,5.36,4.35,9.71,9.71,9.71h58.28
	c5.36,0,9.71-4.35,9.71-9.71v-3.89C228.04,247.36,223.69,243.01,218.33,243.01z"/>
<path fill="#59ADD3" d="M307.69,243.01h-58.28c-5.36,0-9.71,4.35-9.71,9.71v3.89c0,5.36,4.35,9.71,9.71,9.71h58.28
	c5.36,0,9.71-4.35,9.71-9.71v-3.89C317.41,247.36,313.06,243.01,307.69,243.01z"/>
<path opacity="0.5" fill="#59ADD3" d="M397.06,243.01h-58.28c-5.36,0-9.71,4.35-9.71,9.71v3.89c0,5.36,4.35,9.71,9.71,9.71h58.28
	c5.36,0,9.71-4.35,9.71-9.71v-3.89C406.77,247.36,402.42,243.01,397.06,243.01z"/>
<path opacity="0.5" fill="#59ADD3" d="M486.42,243.01h-58.28c-5.36,0-9.71,4.35-9.71,9.71v3.89c0,5.36,4.35,9.71,9.71,9.71h58.28
	c5.36,0,9.71-4.35,9.71-9.71v-3.89C496.14,247.36,491.79,243.01,486.42,243.01z"/>
<path opacity="0.7" fill="#59ADD3" d="M575.79,243.01H517.5c-5.36,0-9.71,4.35-9.71,9.71v3.89c0,5.36,4.35,9.71,9.71,9.71h58.28
	c5.36,0,9.71-4.35,9.71-9.71v-3.89C585.5,247.36,581.15,243.01,575.79,243.01z"/>
<path fill="#59ADD3" d="M218.33,285.75h-58.28c-5.36,0-9.71,4.35-9.71,9.71v3.89c0,5.36,4.35,9.71,9.71,9.71h58.28
	c5.36,0,9.71-4.35,9.71-9.71v-3.89C228.04,290.1,223.69,285.75,218.33,285.75z"/>
<path fill="#59ADD3" d="M307.69,285.75h-58.28c-5.36,0-9.71,4.35-9.71,9.71v3.89c0,5.36,4.35,9.71,9.71,9.71h58.28
	c5.36,0,9.71-4.35,9.71-9.71v-3.89C317.41,290.1,313.06,285.75,307.69,285.75z"/>
<path opacity="0.5" fill="#59ADD3" d="M397.06,285.75h-58.28c-5.36,0-9.71,4.35-9.71,9.71v3.89c0,5.36,4.35,9.71,9.71,9.71h58.28
	c5.36,0,9.71-4.35,9.71-9.71v-3.89C406.77,290.1,402.42,285.75,397.06,285.75z"/>
<path opacity="0.5" fill="#59ADD3" d="M486.42,285.75h-58.28c-5.36,0-9.71,4.35-9.71,9.71v3.89c0,5.36,4.35,9.71,9.71,9.71h58.28
	c5.36,0,9.71-4.35,9.71-9.71v-3.89C496.14,290.1,491.79,285.75,486.42,285.75z"/>
<path opacity="0.7" fill="#59ADD3" d="M575.79,285.75H517.5c-5.36,0-9.71,4.35-9.71,9.71v3.89c0,5.36,4.35,9.71,9.71,9.71h58.28
	c5.36,0,9.71-4.35,9.71-9.71v-3.89C585.5,290.1,581.15,285.75,575.79,285.75z"/>
<path fill="#59ADD3" d="M218.33,328.49h-58.28c-5.36,0-9.71,4.35-9.71,9.71v3.89c0,5.36,4.35,9.71,9.71,9.71h58.28
	c5.36,0,9.71-4.35,9.71-9.71v-3.89C228.04,332.84,223.69,328.49,218.33,328.49z"/>
<path fill="#59ADD3" d="M307.69,328.49h-58.28c-5.36,0-9.71,4.35-9.71,9.71v3.89c0,5.36,4.35,9.71,9.71,9.71h58.28
	c5.36,0,9.71-4.35,9.71-9.71v-3.89C317.41,332.84,313.06,328.49,307.69,328.49z"/>
<path opacity="0.5" fill="#59ADD3" d="M397.06,328.49h-58.28c-5.36,0-9.71,4.35-9.71,9.71v3.89c0,5.36,4.35,9.71,9.71,9.71h58.28
	c5.36,0,9.71-4.35,9.71-9.71v-3.89C406.77,332.84,402.42,328.49,397.06,328.49z"/>
<path opacity="0.5" fill="#59ADD3" d="M486.42,328.49h-58.28c-5.36,0-9.71,4.35-9.71,9.71v3.89c0,5.36,4.35,9.71,9.71,9.71h58.28
	c5.36,0,9.71-4.35,9.71-9.71v-3.89C496.14,332.84,491.79,328.49,486.42,328.49z"/>
<path opacity="0.7" fill="#59ADD3" d="M575.79,328.49H517.5c-5.36,0-9.71,4.35-9.71,9.71v3.89c0,5.36,4.35,9.71,9.71,9.71h58.28
	c5.36,0,9.71-4.35,9.71-9.71v-3.89C585.5,332.84,581.15,328.49,575.79,328.49z"/>
<path fill="#59ADD3" d="M218.33,371.23h-58.28c-5.36,0-9.71,4.35-9.71,9.71v3.89c0,5.36,4.35,9.71,9.71,9.71h58.28
	c5.36,0,9.71-4.35,9.71-9.71v-3.89C228.04,375.58,223.69,371.23,218.33,371.23z"/>
<path fill="#59ADD3" d="M307.69,371.23h-58.28c-5.36,0-9.71,4.35-9.71,9.71v3.89c0,5.36,4.35,9.71,9.71,9.71h58.28
	c5.36,0,9.71-4.35,9.71-9.71v-3.89C317.41,375.58,313.06,371.23,307.69,371.23z"/>
<path opacity="0.5" fill="#59ADD3" d="M397.06,371.23h-58.28c-5.36,0-9.71,4.35-9.71,9.71v3.89c0,5.36,4.35,9.71,9.71,9.71h58.28
	c5.36,0,9.71-4.35,9.71-9.71v-3.89C406.77,375.58,402.42,371.23,397.06,371.23z"/>
<path opacity="0.5" fill="#59ADD3" d="M486.42,371.23h-58.28c-5.36,0-9.71,4.35-9.71,9.71v3.89c0,5.36,4.35,9.71,9.71,9.71h58.28
	c5.36,0,9.71-4.35,9.71-9.71v-3.89C496.14,375.58,491.79,371.23,486.42,371.23z"/>
<path opacity="0.7" fill="#59ADD3" d="M575.79,371.23H517.5c-5.36,0-9.71,4.35-9.71,9.71v3.89c0,5.36,4.35,9.71,9.71,9.71h58.28
	c5.36,0,9.71-4.35,9.71-9.71v-3.89C585.5,375.58,581.15,371.23,575.79,371.23z"/>
<rect x="144.11" y="194.06" fill="none" stroke="#808080" stroke-width="2.7198" stroke-miterlimit="10" width="447.61" height="35.75"/>
<g>
	<path fill="#666666" d="M619.67,208.58v11.58h-4.71v-10.77c0-1.67-0.6-2.12-1.49-2.12c-1.04,0-1.91,0.75-2.75,2.03v10.86H606
		v-22.15l4.72-0.48v8.45c1.28-1.43,2.72-2.18,4.57-2.18C618.03,203.8,619.67,205.56,619.67,208.58z"/>
	<path fill="#666666" d="M636.95,213.62h-9.79c0.3,2.83,1.64,3.61,3.58,3.61c1.28,0,2.42-0.45,3.79-1.4l1.94,2.63
		c-1.58,1.25-3.61,2.21-6.18,2.21c-5.28,0-7.97-3.4-7.97-8.36c0-4.75,2.6-8.51,7.4-8.51c4.54,0,7.31,2.98,7.31,8.12
		C637.04,212.43,637.01,213.14,636.95,213.62z M632.41,210.58c-0.03-2.15-0.69-3.64-2.57-3.64c-1.58,0-2.48,0.98-2.72,3.85h5.28
		V210.58z"/>
	<path fill="#666666" d="M653.42,217.5l-0.99,3.07c-1.85-0.15-3.07-0.72-3.82-2.27c-1.13,1.73-2.9,2.36-4.78,2.36
		c-3.16,0-5.16-2.06-5.16-4.95c0-3.46,2.63-5.34,7.43-5.34h1.61v-0.69c0-1.88-0.75-2.45-2.69-2.45c-1.02,0-2.57,0.3-4.15,0.84
		l-1.07-3.1c2-0.75,4.18-1.16,5.97-1.16c4.6,0,6.57,1.94,6.57,5.61v6.15C652.34,216.78,652.67,217.23,653.42,217.5z M647.72,215.8
		v-2.84h-1.16c-2.15,0-3.19,0.75-3.19,2.33c0,1.25,0.69,2,1.85,2C646.28,217.29,647.15,216.73,647.72,215.8z"/>
	<path fill="#666666" d="M670.31,198.01v22.15h-4.18l-0.24-1.85c-0.9,1.31-2.36,2.36-4.51,2.36c-4.03,0-6.03-3.34-6.03-8.48
		c0-4.9,2.48-8.39,6.57-8.39c1.43,0,2.72,0.57,3.67,1.49v-7.79L670.31,198.01z M665.59,215.44v-6.86c-0.72-0.84-1.43-1.34-2.45-1.34
		c-1.7,0-2.9,1.43-2.9,4.98c0,3.94,1.08,4.98,2.63,4.98C663.98,217.2,664.84,216.61,665.59,215.44z"/>
	<path fill="#666666" d="M687.73,213.62h-9.79c0.3,2.83,1.64,3.61,3.58,3.61c1.28,0,2.42-0.45,3.79-1.4l1.94,2.63
		c-1.58,1.25-3.61,2.21-6.18,2.21c-5.28,0-7.97-3.4-7.97-8.36c0-4.75,2.6-8.51,7.4-8.51c4.54,0,7.31,2.98,7.31,8.12
		C687.82,212.43,687.79,213.14,687.73,213.62z M683.2,210.58c-0.03-2.15-0.69-3.64-2.57-3.64c-1.58,0-2.48,0.98-2.72,3.85h5.28
		V210.58z"/>
	<path fill="#666666" d="M700.71,204.07l-0.75,4.57c-0.51-0.12-0.9-0.21-1.43-0.21c-1.94,0-2.78,1.43-3.28,3.82v7.91h-4.72v-15.85
		h4.12l0.39,3.04c0.72-2.18,2.27-3.49,4.09-3.49C699.73,203.86,700.21,203.92,700.71,204.07z"/>
</g>
<rect x="144.11" y="322.28" fill="none" stroke="#808080" stroke-width="2.7198" stroke-miterlimit="10" width="447.61" height="35.75"/>
<g>
	<path fill="#666666" d="M616.18,328.48l-0.75,4.57c-0.51-0.12-0.89-0.21-1.43-0.21c-1.94,0-2.78,1.43-3.28,3.82v7.91H606v-15.85
		h4.12l0.39,3.04c0.72-2.18,2.27-3.49,4.09-3.49C615.19,328.27,615.67,328.33,616.18,328.48z"/>
	<path fill="#666666" d="M632.59,336.66c0,5.07-2.93,8.42-7.76,8.42c-4.81,0-7.76-3.1-7.76-8.45c0-5.07,2.92-8.42,7.76-8.42
		S632.59,331.32,632.59,336.66z M621.96,336.63c0,3.52,0.96,4.98,2.87,4.98s2.87-1.52,2.87-4.95c0-3.52-0.96-4.98-2.87-4.98
		S621.96,333.2,621.96,336.63z"/>
	<path fill="#666666" d="M652.46,344.57h-5.64l-2.12-11.64l-2.09,11.64h-5.58l-3.37-15.85h4.78l1.64,12.33l2.48-12.33h4.6
		l2.18,12.33l1.91-12.33h4.51L652.46,344.57z"/>
</g>
<rect x="233.48" y="186.67" fill="none" stroke="#808080" stroke-width="2.7198" stroke-miterlimit="10" width="90.14" height="217.59"/>
<g>
	<path fill="#666666" d="M246.52,424.55l-2.03,2.81c-1.02-0.78-1.94-1.13-3.01-1.13c-2.03,0-3.19,1.37-3.19,4.92
		c0,3.52,1.25,4.6,3.13,4.6c1.13,0,1.91-0.36,3.04-1.07l2.06,2.92c-1.46,1.16-3.16,1.88-5.34,1.88c-4.87,0-7.85-3.28-7.85-8.3
		c0-5.04,3.01-8.57,7.76-8.57C243.29,422.61,245,423.27,246.52,424.55z"/>
	<path fill="#666666" d="M263.14,431.06c0,5.07-2.92,8.42-7.76,8.42c-4.81,0-7.76-3.1-7.76-8.45c0-5.07,2.92-8.42,7.76-8.42
		C260.21,422.61,263.14,425.72,263.14,431.06z M252.51,431.03c0,3.52,0.96,4.98,2.87,4.98s2.87-1.52,2.87-4.95
		c0-3.52-0.96-4.98-2.87-4.98S252.51,427.6,252.51,431.03z"/>
	<path fill="#666666" d="M265.79,434.94v-18.12l4.72-0.51v18.44c0,0.66,0.24,0.99,0.81,0.99c0.33,0,0.57-0.06,0.78-0.15l0.93,3.34
		c-0.72,0.3-1.73,0.54-2.87,0.54C267.4,439.48,265.79,437.83,265.79,434.94z"/>
	<path fill="#666666" d="M288.18,438.97h-4.09l-0.21-2c-1.16,1.67-2.72,2.51-4.81,2.51c-2.96,0-4.42-1.91-4.42-4.98v-11.37h4.72
		v10.77c0,1.61,0.54,2.09,1.52,2.09s1.88-0.66,2.57-1.85v-11.01h4.72V438.97z"/>
	<path fill="#666666" d="M313.54,427.39v11.58h-4.72v-10.77c0-1.67-0.63-2.12-1.34-2.12c-1.01,0-1.73,0.75-2.42,2.06v10.83h-4.72
		v-10.77c0-1.67-0.63-2.12-1.34-2.12c-0.99,0-1.73,0.75-2.42,2.06v10.83h-4.72v-15.85h4.12l0.33,1.85c1.22-1.55,2.66-2.36,4.6-2.36
		c1.76,0,3.1,0.89,3.73,2.51c1.25-1.64,2.72-2.51,4.75-2.51C311.84,422.61,313.54,424.37,313.54,427.39z"/>
	<path fill="#666666" d="M330.76,427.39v11.58h-4.72v-10.77c0-1.67-0.57-2.12-1.49-2.12c-1.04,0-1.91,0.75-2.75,2.06v10.83h-4.72
		v-15.85h4.12l0.33,1.88c1.34-1.55,2.87-2.39,4.84-2.39C329.12,422.61,330.76,424.37,330.76,427.39z"/>
</g>
</svg>
